<svg id="Layer_1" data-name="Layer 1" xmlns="http://www.w3.org/2000/svg" viewBox="0 0 253.13 194.89"><defs><style>.cls-1{fill:#403645;}</style></defs><title>big-elephant</title><path class="cls-1" d="M-1318.73,1344.32c-0.53-10.76,5.79-19.65,10.69-26.53,7.57-10.64,15.68-16.65,21.41-20.82,6-4.35,10.77-7.78,18.14-10.1,7.08-2.24,13-2.34,19.33-2.45a105.78,105.78,0,0,1,19,1.53c8.33,1.4,9.2,2.51,14.27,3.06,7.9,0.86,8.83-2.05,21.71-3.37,8-.82,8.87,0,12.19-1.53,5.43-2.51,5.86-6,11.6-10.41a35.25,35.25,0,0,1,14.57-6.43c8.76-1.57,16.12,1.06,22.6,3.37,7.35,2.62,6.41,3.72,11.6,4.9,8.41,1.9,11.84-.78,19,1.53a27.72,27.72,0,0,1,10.41,6.43c8,7.23,10.68,16.61,12.49,23.27,2.16,7.94.73,8.29,3.27,17.14s4.07,8.81,5.95,16.23c1.31,5.19,1.12,7.41,2.08,20.82,0.95,13.13,1.59,13.21,1.49,17.76-0.13,5.66-.81,6.9-2.38,18.37-0.92,6.76-1.65,12.08-2.08,18.67-0.65,9.82-1.05,16.79.89,25.41,1.41,6.26,6.14,9.86,4.46,12.86a5.15,5.15,0,0,1-5.06,2.45c-1.67-.3-2.75-1.69-5.06-5.82-2.89-5.16-4.33-7.75-5.35-10.72-0.77-2.24-1.89-6-2.68-14.08-0.59-6.08-.36-8-0.59-17.14-0.09-3.45-.34-11.56-1.19-21.43a155.73,155.73,0,0,0-2.68-16.53c-0.77-3.71-1.4-6.15-3.27-8.57-2-2.63-3.18-2.2-7.43-5.51-6.11-4.76-5.62-7.13-9.52-8.27-2.59-.76-3.2.17-8-0.92-2.73-.62-3.45-1.12-4.46-0.61-2,1-1,4-3.57,7.65-0.82,1.18-2.22,3.2-4.46,3.67-2.89.61-4.31-2-7.14-1.53-2.49.4-4,2.85-4.76,4-3.7,5.84-1.79,13.83-1.19,16.53,2.94,13.24,2.53,25.23,1.78,46.53-0.53,15.33-.8,23-0.89,23.27-0.34,1-1.43,4-.23,6.81,1.05,2.45,3,2.81,2.91,3.75-0.37,3.09-22.35,3.6-22.76.94,0-.25.13-0.39,2.37-2.81,1.84-2,2.75-3,2.91-3.19,2.15-2.71.15-7.66-1.46-13.5-1.67-6.07-.29-3.52-2.73-14.06-2.83-12.21-4.74-20.45-7.1-20.43-1.08,0-1.55,1.74-4.19,8.25,0,0-4,9.81-8.19,18.75-3.63,7.68-5.45,11.52-6,12.37-1.79,2.72-3.23,4.32-3.1,6.75,0.22,4.16,4.77,5.49,4.37,7.5-0.85,4.23-22.38,4.95-23.31.94-0.12-.53.17-0.89,1.46-2.81,3.35-5,5-7.48,5.64-9,1.7-4.17-1-5.06-.18-11.62,0.58-4.5,2-5,3.64-11.25a58.56,58.56,0,0,0,1.64-10.31c2.18-22.05,4-29,1.27-30.37-1.38-.69-2.21.89-7.65,2.44-4.13,1.18-5.71.86-10.38,1.5-8.5,1.17-7.91,2.88-14.93,3.75-7.72,1-9.57-1-14,1.31a18.35,18.35,0,0,0-6.74,6.37,25.5,25.5,0,0,0-4.19,12.75c-0.33,5.87,1.65,6,4.73,19.87,1.14,5.13,1.33,7.19,2.91,10.87a27.26,27.26,0,0,0,5.83,9.19c4.46,4.41,8.76,4.82,8.56,6s-5.44.56-16,1.31c-7.75.55-11.54,1.41-12.93-.75-1-1.5.23-2.89,0.18-6.94,0-3.32-.88-5.45-2-8.81-2-6-.31-2.17-4.55-16.12-2.65-8.71-3.87-12-6.19-15.93-2.13-3.57-3.59-6-5.64-6-3.84-.08-7,8-8.19,12.37-0.5,1.82-.27,1.61-1.27,15.75-0.3,4.3.17,8.68-.55,12.93-0.38,2.26-1,4.81.36,7.12,1.18,2,3.11,2.58,2.91,3.37s-2.89.84-6.74,0.94c-9.12.23-10.79,1.05-12-.37s-0.52-3.07.36-8.62c0,0,1.09-6.89,1.46-14.25a57.46,57.46,0,0,0-1.46-15c-2-10.45-4.21-10.39-6.37-20.81-1.52-7.35-.62-8.23-2.55-16.12-1.73-7.07-2.4-6.14-3.82-12.56-0.88-4-1.44-8.78-2.55-18.37C-1318.48,1346.82-1318.71,1344.79-1318.73,1344.32Z" transform="translate(1318.77 -1266.8)"/></svg>