<svg id="Layer_1" data-name="Layer 1" xmlns="http://www.w3.org/2000/svg" viewBox="0 0 333.75 131.59"><title>birds</title><path d="M-1109.07,2160.28c-3.18,14.21-10.78,23.71-18.26,33.43s-14.72,19.9-21.52,30.23c-2.91,4.41-.82,7.17,4.74,7.1,3.35,0,6.68-.73,12.2-1.38l-10.65,13.56c-6-2.81-12.44-5.08-18.07-8.6-9.61-6-18.71-3.73-27.58.79-8.39,4.28-16.33,9.43-24.49,14.15-1.32.77-2.78,1.3-5.37,2.49,7.78-9.31,14.36-17.93,21.85-25.68,2.25-2.32,7-2.6,10.65-3.09s7.56-.11,10.5-0.11c0.72-3,.62-5.43,1.8-6.56a5.49,5.49,0,0,1,5.23-.52c4.23,2.71,6.71.66,9.12-2.44a5,5,0,0,0,.78-1.11c7.3-18.29,21.84-30,37.13-41.06C-1117.13,2168.67-1113.93,2164.89-1109.07,2160.28Z" transform="translate(1218.07 -2160.28)"/><path d="M-938.16,2200.71c-3,3.85-6.1,7.66-9,11.58-2.41,3.22-5.12,6.35-6.82,9.94-3.9,8.22-3.17,9.29,7.75,11.41l-8.14,10.51c-5.91-8.76-7.7-9.26-15.14-3.49-7.61,5.9-14.83,12.32-22.57,18.17,5.3-11.35,7.18-25.55,24-26.53l-1.27-8.18,6.44,1.78C-962.88,2210.09-951.6,2204.51-938.16,2200.71Z" transform="translate(1218.07 -2160.28)"/><path d="M-1022.38,2212.25c-2.57,11.48-8.71,19.16-14.75,27s-11.89,16.08-17.38,24.42c-2.35,3.57-.67,5.79,3.83,5.74,2.7,0,5.4-.59,9.86-1.11l-8.6,11c-4.87-2.27-10-4.11-14.6-6.95-7.76-4.84-15.12-3-22.28.64-6.77,3.46-13.19,7.62-19.78,11.43-1.07.62-2.24,1.05-4.34,2,6.29-7.52,11.6-14.49,17.65-20.75,1.81-1.88,5.63-2.1,8.6-2.5a60.3,60.3,0,0,1,8.48-.09c0.58-2.4.5-4.38,1.45-5.3a4.43,4.43,0,0,1,4.23-.42c3.42,2.19,5.42.54,7.37-2a4,4,0,0,0,.63-0.9c5.89-14.77,17.64-24.2,30-33.17C-1028.9,2219-1026.31,2216-1022.38,2212.25Z" transform="translate(1218.07 -2160.28)"/><path d="M-884.32,2244.92c-2.44,3.11-4.93,6.19-7.29,9.36-1.94,2.6-4.14,5.13-5.51,8-3.15,6.64-2.56,7.5,6.26,9.22l-6.57,8.49c-4.78-7.07-6.22-7.48-12.23-2.82s-12,9.95-18.23,14.68c4.28-9.17,5.8-20.64,19.4-21.43l-1-6.6,5.2,1.44C-904.29,2252.49-895.18,2248-884.32,2244.92Z" transform="translate(1218.07 -2160.28)"/></svg>