<svg id="Layer_1" data-name="Layer 1" xmlns="http://www.w3.org/2000/svg" viewBox="0 0 240.08 266.22"><title>community</title><path d="M2997.35,2040.44c2.69,1.46,5.6,2.65,8,4.44a25.81,25.81,0,0,1,9.34,29c-0.21.69-.39,1.4-0.62,2.24l48.32,27.85a26,26,0,0,1,18.24-10.59,25.38,25.38,0,0,1,15.2,3,26.4,26.4,0,0,1,13.64,27.32c-1.77,11-10.78,19.58-22.83,21.66v56.59a27.24,27.24,0,0,1,18.16,11.34,27.73,27.73,0,0,1,5.36,15.92c0.14,10.42-7,20.42-17,24.22s-22.26,1.45-30.56-9.3l-47.6,27.43c0.5,4.09,1.31,7.79,1.34,11.5,0.08,9.77-6.95,19.71-16.1,23.23a6.83,6.83,0,0,1-2.36.38c-5,0-10.06.07-15.08,0a9.13,9.13,0,0,1-3.59-.8,26.21,26.21,0,0,1-14.05-31.5c0.23-.77.49-1.53,0.79-2.48l-48.18-27.76a26.23,26.23,0,0,1-46.77-8.65,26.5,26.5,0,0,1,18.77-32.08c3.77-1,3.77-1,3.77-4.91q0-24.84,0-49.69v-2.53a26.12,26.12,0,0,1-23.36-24.74c-0.75-10.24,5.9-20.83,15.92-25.22a26.4,26.4,0,0,1,31.38,8.18l48-27.65c-0.64-3.49-1.67-6.77-1.78-10.07-0.39-11.56,6.25-21.23,17.06-25.45a14.55,14.55,0,0,0,1.5-.79h15.09Zm-76.66,197.41,48.27,28.63a24.83,24.83,0,0,1,15.66-10.26c1.76-.35,2.28-0.89,2.26-2.65-0.09-8.35,0-16.7,0-25,0-.71-0.06-1.41-0.09-2.08-17.34-1.73-30.86-9.59-40.83-23.75-8.27,4.72-16.46,9.38-24.61,14.12a2,2,0,0,0-.48,1.74c0.41,1.86,1.1,3.66,1.51,5.53C2923.36,2228.79,2922.21,2233.29,2920.69,2237.85Zm-21.25-92.08a8.07,8.07,0,0,0-.14,1q0.21,26.95.4,53.9c0,1.25.48,1.58,1.64,1.77a22.55,22.55,0,0,1,10.93,5c1.69,1.42,3.24,3,5,4.68l25.3-14.46c-7.58-15.93-7.53-31.68,0-47.54l-25.2-14.63C2912.6,2141.14,2906.86,2144.78,2899.44,2145.77ZM3059,2109.25l-48-28.06a2.25,2.25,0,0,0-.46.19l-1.2,1.3a26.31,26.31,0,0,1-14.61,8.22c-1.69.32-2,1-1.95,2.46,0.05,8.5,0,17,0,25.51,0,0.57.08,1.14,0.13,1.76q25.93,2.53,40.8,23.75c8.14-4.72,16.12-9.33,24.07-14a1.93,1.93,0,0,0,.75-1.66A27,27,0,0,1,3059,2109.25Zm-22,40.52c7.6,16,7.53,31.73,0,47.54,8.36,4.77,16.54,9.47,24.78,14.09a2.23,2.23,0,0,0,1.77-.52c2.45-1.88,4.65-4.16,7.29-5.7s5.88-2.55,8.86-3.79v-55.55c-3.47-1.36-6.81-2.24-9.68-3.92s-5.4-4.22-8.26-6.53Zm-116.24-40.59c2.46,8.53,2.67,11.54.33,19.49a2.42,2.42,0,0,0,1.12,1.87c5.58,3.33,11.21,6.57,16.83,9.83l6.79,3.93c10.07-14.27,23.84-21.65,41-23.32,0-9.47,0-18.84-.07-28.22a2.21,2.21,0,0,0-1.54-1.28,25.77,25.77,0,0,1-14.85-8.18l-1.59-1.8Zm90.15,156.34,47.49-27.61c-2.61-9.64-2.61-9.64.32-20.67l-24.93-14.49c-10,14.24-23.8,21.66-40.8,23.31a3.1,3.1,0,0,0-.2.71c0,9.09,0,18.19,0,27.28a2.29,2.29,0,0,0,1.51,1.53,25.79,25.79,0,0,1,11.56,5.27C3007.61,2262.26,3009.14,2263.86,3010.91,2265.52ZM2896.61,2208a19.94,19.94,0,0,0-20.22,20,20.18,20.18,0,0,0,20,20.06A20,20,0,0,0,2896.61,2208Zm-0.28-68.61a20,20,0,1,0-19.92-20A20,20,0,0,0,2896.33,2139.44Zm206.84,87.83c-0.7-11.87-10-19.91-22-19.16-10,.62-18.6,10.48-18,20.6,0.67,11.14,10.32,20,21,19.35C3095.17,2247.37,3103.8,2237.93,3103.17,2227.27ZM3083,2139.44a20,20,0,0,0,.37-40c-10.61-.07-20.3,9.46-20.29,19.94A20,20,0,0,0,3083,2139.44Zm-93.35-54.06c10.82,0.06,20.06-8.74,20.12-19.15a20.1,20.1,0,0,0-20-20.48c-10.92,0-19.92,8.65-20,19.24A20,20,0,0,0,2989.69,2085.38Zm-19.88,196.21a20.09,20.09,0,0,0,19.88,20.14c10.91,0.08,20.14-8.93,20.12-19.64a20.09,20.09,0,0,0-20-20C2978.89,2262.11,2969.8,2271,2969.81,2281.59Zm19.82-94.64c5.25,0,10.5-.05,15.75,0,1.59,0,2.25-.36,2.24-2.07q-0.1-11.29,0-22.58c0-1.7-.5-2.28-2.28-2.26q-15.75.12-31.5,0c-1.58,0-2.27.36-2.26,2.07,0.06,7.6,0,15.2,0,22.8,0,1.5.5,2.05,2.07,2C2979,2186.9,2984.3,2187,2989.62,2187Zm-16.23,6.77a4.21,4.21,0,0,0-.05,1c1.57,7.5,3.85,14.71,8.69,20.82s10.37,6.16,15.5.12c0.24-.28.46-0.58,0.69-0.86,3.79-4.62,5.66-10.12,7.16-15.78,0.44-1.68.74-3.4,1.14-5.26h-33.13Zm33.11-40.36c-0.43-1.9-.72-3.56-1.18-5.16-1.86-6.49-4.09-12.84-8.85-17.87-4.39-4.64-9.07-4.62-13.34.14a24.67,24.67,0,0,0-4.34,6.37c-1.91,4.37-3.38,8.94-5,13.44a21.79,21.79,0,0,0-.61,3.09h33.29Zm-61.34,6.89a45,45,0,0,0,0,26.53h20v-26.53h-20Zm89.24,0h-19.92V2187c6.23,0,12.49,0,18.76-.06a2.18,2.18,0,0,0,1.51-1.33A44,44,0,0,0,3034.4,2160.26ZM3004,2129.12c1.84,3.82,3.79,7.31,5.22,11a76.08,76.08,0,0,1,3.39,11.41c0.44,2,1.29,2.4,3.1,2.36,4.58-.1,9.16,0,13.73,0,0.69,0,1.39-.07,2.43-0.13C3025.64,2141.64,3016.7,2133.34,3004,2129.12Zm-27.9,89c-5-7.56-7.67-15.45-9.48-23.69a2.44,2.44,0,0,0-1.91-1.16c-5.09-.1-10.19-0.06-15.28,0a9.7,9.7,0,0,0-1.62.32C2954,2205.45,2962.94,2213.75,2976.11,2218.12Zm28-.39c12.41-4.5,22-12,27.63-24.51H3018.1c-4.78,0-4.84,0-5.91,4.53A64.46,64.46,0,0,1,3004.15,2217.73ZM2976.06,2129c-13.05,4.64-22.46,12.38-28.25,24.85,6.1,0,11.77,0,17.44-.06a2,2,0,0,0,1.41-1.25C2968.39,2144.34,2970.87,2136.45,2976.06,2129Z" transform="translate(-2870.12 -2040.44)"/></svg>