<svg id="Layer_1" data-name="Layer 1" xmlns="http://www.w3.org/2000/svg" viewBox="0 0 244 266.2"><title>engagement</title><path d="M3019.15,2356.37c1.74,0.55,3.53,1,5.2,1.66,12.67,5.31,20,15,22.68,28.27,1.86,9-.91,17.44-4.79,25.44q-15.45,31.87-48.7,44.31a3.9,3.9,0,0,1-2.5.11c-25.57-9.57-43.33-27-52.44-52.85-7.55-21.39,7.57-40.52,21.21-45.3,1.72-.6,3.47-1.1,5.21-1.64h7.54a5.2,5.2,0,0,0,1,.39,33.62,33.62,0,0,1,16.89,8.16c0.54,0.47,1.09.92,1.68,1.42a35.48,35.48,0,0,1,13.78-8.48c1.72-.57,3.49-1,5.24-1.5h8Zm-27.06,31.24c-1.85-3.45-3.43-6.52-5.13-9.53-7.32-13-24.59-14.43-33.74-2.58-6.2,8-7,17.14-3.61,26.46,7.34,20.42,21.83,34,41.54,42.3a2.93,2.93,0,0,0,2.06-.06c18.54-7.87,32.42-20.55,40.29-39.32,3.09-7.36,4.17-14.94,1.2-22.63-3.23-8.37-9-14-18.22-14.66s-15.89,3.55-20,11.83C2995.15,2382,2993.7,2384.6,2992.09,2387.61Z" transform="translate(-2870.08 -2356.37)"/><path d="M2870.08,2545.94c0-36.2,27.14-68.62,62.85-75.13,20.76-3.79,39.73.71,57,12.61,1.58,1.09,2.54,1.25,4.18.07,30.49-21.7,71.66-17.79,97.84,9.32,15.39,15.94,23.14,35,22,57.22-1,19.72-9,36.56-23.11,50.32-15.85,15.48-34.95,23.11-57.17,22.14a73,73,0,0,1-39.74-14c-1.34-1-2.21-1.09-3.64-.08-33.28,23.7-78.33,17-103.64-15.33C2875.71,2579,2870.07,2563,2870.08,2545.94Zm113.59-54c-21.83-16-61.1-16.93-85.6,9.59-23.4,25.32-22.29,67.31,2.54,91.53,25,24.43,63.08,22,83,7C2954.45,2571.61,2952.56,2522.45,2983.67,2492Zm16.74,108.19c24.36,17.07,63.37,15.72,86.34-10.45,22.78-26,21.43-66.26-2.84-90.36-24.42-24.25-62.21-22.92-83.42-7.37C3031.46,2522.38,3029.89,2571.36,3000.41,2600.15Zm-8.28-101.46c-28.24,26-24.89,73.38.14,94.59C3018.79,2568.4,3018.39,2523.13,2992.12,2498.69Z" transform="translate(-2870.08 -2356.37)"/></svg>