<svg id="Layer_1" data-name="Layer 1" xmlns="http://www.w3.org/2000/svg" viewBox="0 0 174.4 416.16"><title>footprints</title><path d="M-931.23,1969.93c-5.35-1.86-6.8-1.43-16,4.69-4-5.6-5.6-6.66-14.41-9.36,0-.33,0-0.69.1-1,0.86-5.94-1.39-10.87-5.34-15a70.4,70.4,0,0,0-7.8-6.6,1.89,1.89,0,0,1-.9-2.09c1.58-9.83,7.16-16.52,16.17-20.38s18.29-3.65,27.7-1.51c15.77,3.59,21.66,14.92,21.39,28.51,0,1.75-.25,3.5-0.39,5.36-1.12-.13-2.06-0.27-3-0.36-5.92-.57-10.38,1.81-13.54,6.76A28.54,28.54,0,0,0-931.23,1969.93Z" transform="translate(1084.18 -1619.39)"/><path d="M-954.92,1970.39a14.25,14.25,0,0,1,6.86,12.63c-0.05,4.6-3.21,7.6-7.84,7.52a19.26,19.26,0,0,1-15-7.5c-1.94-2.35-1.92-4.45-.16-6.91a16.5,16.5,0,0,1,8.66-6.56A9,9,0,0,1-954.92,1970.39Z" transform="translate(1084.18 -1619.39)"/><path d="M-929.22,1973.54a13.17,13.17,0,0,1,5.67,6.39,5.77,5.77,0,0,1-1.51,7,21,21,0,0,1-16.7,5.43,5.3,5.3,0,0,1-4.8-6.64,62.47,62.47,0,0,1,2.42-8.61c1.74-4.71,5.56-6.53,10.41-5.18C-932.2,1972.38-930.72,1973-929.22,1973.54Z" transform="translate(1084.18 -1619.39)"/><path d="M-912.95,1974.27c-2.9,6.09-7.69,5.12-11.63,1.8-4.84-4.09-5.27-9.28-1.45-15.2a15.12,15.12,0,0,1,6.5-6c4.54-2,8.66.13,9.48,5C-909.21,1964.93-910.41,1969.63-912.95,1974.27Z" transform="translate(1084.18 -1619.39)"/><path d="M-971.91,1947.82c5.38,3,9,10.32,7.77,16-1.16,5.4-5,7.69-10.39,6.52a5.72,5.72,0,0,1-4-3.24,22.25,22.25,0,0,1-1.58-16.22C-978.73,1946.28-976.17,1945.43-971.91,1947.82Z" transform="translate(1084.18 -1619.39)"/><path d="M-931.66,1827c-5.35-1.86-6.8-1.43-16,4.69-4-5.6-5.6-6.66-14.41-9.36,0-.33,0-0.69.1-1,0.86-5.94-1.39-10.87-5.34-15a70.4,70.4,0,0,0-7.8-6.6,1.89,1.89,0,0,1-.9-2.09c1.58-9.83,7.16-16.52,16.17-20.38s18.29-3.65,27.7-1.51c15.77,3.59,21.66,14.92,21.39,28.51,0,1.75-.25,3.5-0.39,5.36-1.12-.13-2.06-0.27-3-0.36-5.92-.57-10.38,1.81-13.54,6.76A28.54,28.54,0,0,0-931.66,1827Z" transform="translate(1084.18 -1619.39)"/><path d="M-955.34,1827.43a14.25,14.25,0,0,1,6.86,12.63c-0.05,4.6-3.21,7.6-7.84,7.52a19.26,19.26,0,0,1-15-7.5c-1.94-2.35-1.92-4.45-.16-6.91a16.5,16.5,0,0,1,8.66-6.56A9,9,0,0,1-955.34,1827.43Z" transform="translate(1084.18 -1619.39)"/><path d="M-929.64,1830.59A13.17,13.17,0,0,1-924,1837a5.77,5.77,0,0,1-1.51,7,21,21,0,0,1-16.7,5.43,5.3,5.3,0,0,1-4.8-6.64,62.47,62.47,0,0,1,2.42-8.61c1.74-4.71,5.56-6.53,10.41-5.18C-932.62,1829.43-931.15,1830.05-929.64,1830.59Z" transform="translate(1084.18 -1619.39)"/><path d="M-913.38,1831.32c-2.9,6.09-7.69,5.12-11.63,1.8-4.84-4.09-5.27-9.28-1.45-15.2a15.12,15.12,0,0,1,6.5-6c4.54-2,8.66.13,9.48,5C-909.63,1822-910.84,1826.68-913.38,1831.32Z" transform="translate(1084.18 -1619.39)"/><path d="M-972.34,1804.86c5.38,3,9,10.32,7.77,16-1.16,5.4-5,7.69-10.39,6.52a5.72,5.72,0,0,1-4-3.24,22.25,22.25,0,0,1-1.58-16.22C-979.16,1803.32-976.6,1802.48-972.34,1804.86Z" transform="translate(1084.18 -1619.39)"/><path d="M-929.82,1667.93c-5.66,0-6.89.88-13.57,9.67-5.6-4-7.47-4.45-16.68-4.12-0.08-.32-0.18-0.66-0.25-1-1.14-5.9-4.88-9.82-10-12.44a70.4,70.4,0,0,0-9.53-3.67,1.89,1.89,0,0,1-1.54-1.68c-1.74-9.8,1.34-18,8.59-24.56s16.09-9.44,25.67-10.51c16.07-1.78,25.35,7,29.56,19.92,0.54,1.67.91,3.39,1.39,5.19-1.1.24-2,.42-2.95,0.64-5.78,1.4-9.21,5.11-10.58,10.83A28.54,28.54,0,0,0-929.82,1667.93Z" transform="translate(1084.18 -1619.39)"/><path d="M-952,1676.13a14.25,14.25,0,0,1,10.62,9.68c1.46,4.36-.54,8.24-4.94,9.68a19.26,19.26,0,0,1-16.6-2.17c-2.6-1.58-3.27-3.58-2.42-6.47a16.5,16.5,0,0,1,6-9A9,9,0,0,1-952,1676.13Z" transform="translate(1084.18 -1619.39)"/><path d="M-926.73,1670.68a13.17,13.17,0,0,1,7.45,4.17,5.77,5.77,0,0,1,.87,7.13,21,21,0,0,1-14,10.61,5.3,5.3,0,0,1-6.71-4.7,62.47,62.47,0,0,1-.54-8.93c0.1-5,3.11-8,8.13-8.31C-929.93,1670.56-928.33,1670.67-926.73,1670.68Z" transform="translate(1084.18 -1619.39)"/><path d="M-911.13,1666c-0.74,6.7-5.59,7.36-10.4,5.51-5.92-2.28-8-7-6.35-13.89a15.12,15.12,0,0,1,4.17-7.81c3.63-3.38,8.23-2.72,10.6,1.63C-910.65,1656-910.25,1660.82-911.13,1666Z" transform="translate(1084.18 -1619.39)"/><path d="M-975.5,1660.38c6.07,1.08,11.89,6.79,12.6,12.6,0.67,5.48-2.24,8.91-7.67,9.56a5.72,5.72,0,0,1-4.82-1.76,22.25,22.25,0,0,1-6.81-14.8C-982.45,1661.16-980.31,1659.53-975.5,1660.38Z" transform="translate(1084.18 -1619.39)"/><path d="M-1028.75,2013c-5.35-1.86-6.8-1.43-16,4.69-4-5.6-5.6-6.66-14.41-9.36,0-.33,0-0.69.1-1,0.86-5.94-1.39-10.87-5.34-15a70.4,70.4,0,0,0-7.8-6.6,1.89,1.89,0,0,1-.9-2.09c1.58-9.83,7.16-16.52,16.17-20.38s18.29-3.65,27.7-1.51c15.77,3.59,21.66,14.92,21.39,28.51,0,1.75-.25,3.5-0.39,5.36-1.12-.13-2.06-0.27-3-0.36-5.92-.57-10.38,1.81-13.54,6.76A28.54,28.54,0,0,0-1028.75,2013Z" transform="translate(1084.18 -1619.39)"/><path d="M-1052.43,2013.42a14.25,14.25,0,0,1,6.86,12.63c-0.05,4.6-3.21,7.6-7.84,7.52a19.26,19.26,0,0,1-15-7.5c-1.94-2.35-1.92-4.45-.16-6.91a16.5,16.5,0,0,1,8.66-6.56A9,9,0,0,1-1052.43,2013.42Z" transform="translate(1084.18 -1619.39)"/><path d="M-1026.74,2016.58a13.17,13.17,0,0,1,5.67,6.39,5.77,5.77,0,0,1-1.51,7,21,21,0,0,1-16.7,5.43,5.3,5.3,0,0,1-4.8-6.64,62.47,62.47,0,0,1,2.42-8.61c1.74-4.71,5.56-6.53,10.41-5.18C-1029.72,2015.41-1028.24,2016-1026.74,2016.58Z" transform="translate(1084.18 -1619.39)"/><path d="M-1010.47,2017.3c-2.9,6.09-7.69,5.12-11.63,1.8-4.84-4.09-5.27-9.28-1.45-15.2a15.12,15.12,0,0,1,6.5-6c4.54-2,8.66.13,9.48,5C-1006.73,2008-1007.93,2012.66-1010.47,2017.3Z" transform="translate(1084.18 -1619.39)"/><path d="M-1069.43,1990.85c5.38,3,9,10.32,7.77,16-1.16,5.4-5,7.69-10.39,6.52a5.72,5.72,0,0,1-4-3.24,22.25,22.25,0,0,1-1.58-16.22C-1076.25,1989.31-1073.69,1988.46-1069.43,1990.85Z" transform="translate(1084.18 -1619.39)"/><path d="M-1033.84,1872.46c-5.35-1.86-6.8-1.43-16,4.69-4-5.6-5.6-6.66-14.41-9.36,0-.33,0-0.69.1-1,0.86-5.94-1.39-10.87-5.34-15a70.4,70.4,0,0,0-7.8-6.6,1.89,1.89,0,0,1-.9-2.09c1.58-9.83,7.16-16.52,16.17-20.38s18.29-3.65,27.7-1.51c15.77,3.59,21.66,14.92,21.39,28.51,0,1.75-.25,3.5-0.39,5.36-1.12-.13-2.06-0.27-3-0.36-5.92-.57-10.38,1.81-13.54,6.76A28.54,28.54,0,0,0-1033.84,1872.46Z" transform="translate(1084.18 -1619.39)"/><path d="M-1057.52,1872.92a14.25,14.25,0,0,1,6.86,12.63c-0.05,4.6-3.21,7.6-7.84,7.52a19.26,19.26,0,0,1-15-7.5c-1.94-2.35-1.92-4.45-.16-6.91a16.5,16.5,0,0,1,8.66-6.56A9,9,0,0,1-1057.52,1872.92Z" transform="translate(1084.18 -1619.39)"/><path d="M-1031.82,1876.08a13.17,13.17,0,0,1,5.67,6.39,5.77,5.77,0,0,1-1.51,7,21,21,0,0,1-16.7,5.43,5.3,5.3,0,0,1-4.8-6.64,62.47,62.47,0,0,1,2.42-8.61c1.74-4.71,5.56-6.53,10.41-5.18C-1034.8,1874.91-1033.33,1875.54-1031.82,1876.08Z" transform="translate(1084.18 -1619.39)"/><path d="M-1015.56,1876.8c-2.9,6.09-7.69,5.12-11.63,1.8-4.84-4.09-5.27-9.28-1.45-15.2a15.12,15.12,0,0,1,6.5-6c4.54-2,8.66.13,9.48,5C-1011.81,1867.46-1013,1872.16-1015.56,1876.8Z" transform="translate(1084.18 -1619.39)"/><path d="M-1074.52,1850.35c5.38,3,9,10.32,7.77,16-1.16,5.4-5,7.69-10.39,6.52a5.72,5.72,0,0,1-4-3.24,22.25,22.25,0,0,1-1.58-16.22C-1081.34,1848.81-1078.78,1848-1074.52,1850.35Z" transform="translate(1084.18 -1619.39)"/><path d="M-1032.78,1731.59c-5.57-1-6.94-.35-15.06,7.13-4.81-4.91-6.57-5.7-15.69-7,0-.33-0.06-0.68-0.06-1-0.08-6-3.07-10.52-7.62-14a70.4,70.4,0,0,0-8.74-5.3,1.89,1.89,0,0,1-1.22-1.92c0-10,4.49-17.44,12.79-22.66s17.5-6.46,27.13-5.81c16.13,1.08,23.72,11.36,25.58,24.82,0.24,1.74.3,3.5,0.45,5.36-1.13,0-2.07.06-3,.11-5.94.36-10,3.4-12.32,8.79A28.54,28.54,0,0,0-1032.78,1731.59Z" transform="translate(1084.18 -1619.39)"/><path d="M-1056.1,1735.74a14.25,14.25,0,0,1,8.74,11.4c0.66,4.55-2,8-6.57,8.66a19.26,19.26,0,0,1-16-5.07c-2.28-2-2.59-4.1-1.24-6.8a16.5,16.5,0,0,1,7.53-7.83A9,9,0,0,1-1056.1,1735.74Z" transform="translate(1084.18 -1619.39)"/><path d="M-1030.23,1734.85a13.17,13.17,0,0,1,6.6,5.42,5.77,5.77,0,0,1-.4,7.17,21,21,0,0,1-15.65,8,5.3,5.3,0,0,1-5.78-5.81,62.47,62.47,0,0,1,1-8.88c1-4.92,4.47-7.32,9.47-6.74C-1033.35,1734.16-1031.79,1734.55-1030.23,1734.85Z" transform="translate(1084.18 -1619.39)"/><path d="M-1014,1733c-1.91,6.46-6.8,6.26-11.21,3.59-5.42-3.28-6.65-8.34-3.8-14.79a15.12,15.12,0,0,1,5.48-6.95c4.17-2.69,8.58-1.22,10.14,3.47C-1011.81,1723.22-1012.27,1728-1014,1733Z" transform="translate(1084.18 -1619.39)"/><path d="M-1076.41,1716.1c5.78,2.13,10.5,8.78,10.18,14.63-0.3,5.51-3.78,8.38-9.24,8.06a5.72,5.72,0,0,1-4.44-2.58,22.25,22.25,0,0,1-4.09-15.77C-1083.39,1715.65-1081,1714.42-1076.41,1716.1Z" transform="translate(1084.18 -1619.39)"/></svg>