<svg id="Layer_1" data-name="Layer 1" xmlns="http://www.w3.org/2000/svg" viewBox="0 0 1920.12 88.06"><defs><style>.cls-1{fill:#fcd9a6;}.cls-2{fill:#f0b963;}</style></defs><title>yellow-grass</title><path class="cls-1" d="M0.35,1099.68v-30.61c3.94,0,7.86-.54,9.5-4.62,1.45-3.62,2.08-1.34,2.69.13,1.31,3.15,2.37,2.24,4,.18,1.84-2.31,1.57-5.82,4.6-7.55,0.54,3.93-1.72,7.44-1.58,11.27,2.66-2.66,1.28-7.26,4.84-9.39,0.76,0.87.09,1.7-.11,2.47-0.69,2.6-1.56,5.15-2.21,7.76-0.18.73-.46,1.87,0.68,2.24,0.83,0.27,1.32-.48,1.77-1.07,1.36-1.78,3-3.49,1-5.87-0.49-.57-0.82-1.4.1-1.86a1.28,1.28,0,0,1,1.53.77c1.27,1.89,2.5,3.81,2.56,6.47,2.94-2.13,2.4-5,2.76-7.65l0,0c1.52,1.72.65,3.8,0.86,5.72,0.11,1,0,2.09,1.14,2.52,1.48,0.54,1.4-.95,2-1.6,1.65-1.81,1.41-4.15,1.89-6.29,0.25-1.12.44-2.54,1.81-2.41,2.1,0.21.62,1.7,0.53,2.56a10.63,10.63,0,0,0,1.22,5.38c0.29,0.69.66,1.4,1.61,1.22,0.77-.14.8-0.83,1-1.42a27.55,27.55,0,0,0,.68-6.28c0.06-1.23-.76-3.38,1-3.47,2-.1,1.2,2.11,1.17,3.26-0.05,2.49,1.14,4.24,2.79,5.84,0.56,0.54,1.22,1.09,1.92.5s0-1.25-.29-1.9c-1.17-2.61-2.43-5.23-1.82-8.23a1.25,1.25,0,0,1,1.22,1c2,3.38,4.06,6.79,7.72,8.77,0.81,0.44,1.58,1,2.31.1a1.55,1.55,0,0,0-.17-2,19,19,0,0,1-2.52-5.35l0.31-.31a15.07,15.07,0,0,1,5,8.41c2.68-3.72.78-7.62,2-11.21,0.78,1.68.09,3.2,0.37,4.62,0.44,2.31,1.72,4.57,4,4.7,2.56,0.14,1.44-2.58,1.91-4.07a1,1,0,0,1,1.2-1c0.67,2.13.27,4.73,2.15,6.67,2.16,2.23,4.57-2.48,6.51.47,2.23-1.9.74-4.68,1.6-7,2.78,1.11,1.85,4.08,3.08,5.91,3.26-3.07,1.09-7.32,2.39-11.35,0.6,3.24-.1,6,0.72,8.67,0.5,1.65,1.36,3.33,3.06,3.19,1.55-.13,1.3-2.1,1.53-3.4l0.82,0.05c-0.2,2.45,1.51,4.08,2.82,5.68,1.46,1.76,2.48.89,2.57-1.2l2.18-.06c1.52-.51-0.11-2.32,1.29-3,1.23,1.12,2.69,3.36,3.72,3.18,2.23-.39-0.06-3.22,1.53-4.78l3.15,7.4c1-2.73,1.87-4.89,2.68-7.05,0.57-1.5-.07-4.32,2-4.12,1.76,0.17,1.05,3,1.4,4.59a1.49,1.49,0,0,0,.4.47c0.77-3.23-.64-6.61.73-10,1.56,1.09,1.49,2.5,1.67,3.8,0.61,4.56,5.53,8.28,10,8,2-.11,2-2.7,2.64-2.34,2.41,1.36,5.78-.17,6.86.63,3.46,2.57,2.94-1.2,4.2-1.91,0.62,1.31-.47,3.88,1.94,3.76s2-2.34,2.09-4.1c0-.81-0.59-2.05,1.15-2.35a27.77,27.77,0,0,0,.44,3.31c0.48,1.88,1.41,4,3.58,3.5,2.44-.58-0.58-2.06,0-3.26,0.32-.69-0.39-1.86.82-2.16,0.7-.17,1,0.55,1.3,1.09,2.13,3.74,2.13,3.74,4.83.43,0.29-.36.61-0.71,1-1.23,0.8,2.87-1.32,5.6.11,8.58a50.83,50.83,0,0,0,6.76-11.28c-0.36,2.82,1,5.1,1.88,7.51,0.28,0.81.86,1.76,1.84,1.51,1.37-.34.72-1.6,0.78-2.52,0.08-1.22-1.93-1.81-1-3.3,1.49,1.31,3,2.63,4.51,4,0.75,0.66,1.2,2.18,2.61.87h1.35c1.45,2.67,2.4,1.1,2.68-.53a60.52,60.52,0,0,0,.4-7.05c0-.72,0-1.67,1-1.66a1.41,1.41,0,0,1,1.23,1.6c0,2.24,0,4.47,0,6.71,0,0.57-.23,1.38.51,1.61s1.34-.34,1.67-1.08c0.78-1.75.74-3.63,1-5.48a1.21,1.21,0,0,1,1.15-1.23c0.83,0,.84.8,0.86,1.39,0.07,1.87.06,3.74,1,5.44,0.41,0.74.71,1.71,1.85,1.48,1-.19.77-1.12,1.05-1.77,1.06-2.46-.89-5,0.15-7.55,1.66,1.3,2.17,3.09,2.77,4.83s1.53,3.26,3.71,3.28a1.63,1.63,0,0,0,1.47-1.68c0.92,0.45,1.63,2.09,2.8,1.06s0.25-2.22-.62-3.17a5.46,5.46,0,0,1-.72-0.84c-0.3-.51-0.82-1.12-0.31-1.66a1.26,1.26,0,0,1,1.94.26c1.46,1.59,2.87,3.23,4.3,4.85,1.53-1.14.13-3,1.39-4.16l3.49,5.33c0.35-2.65,1-3.73,2.92-1.57a20.78,20.78,0,0,0,2.37,1.76c1.47,1.25,2.32,1.24,2.62-.94,0.37-2.7.89-5.37,1.39-8,0.16-.87-0.23-2.31,1.34-2.08,1.13,0.17,1,1.43.82,2.17-0.74,2.73,0,5.72-1.57,8.29-0.46.74-.77,1.72,0.3,2.22,0.88,0.41,1.2-.5,1.73-1,1.93-1.84,2-4.26,2-7.69,1.51,2.8,2.53,4.71,3.57,6.62,0.36,0.66.74,1.43,1.64,1.21a1.44,1.44,0,0,0,1-1.76c-0.7-2.39.21-5-1.11-7.27-0.45-.78-1.08-1.68.13-2.11s1.34,0.78,1.44,1.6c0.4,3.25,2.34,5.94,3.21,9a1.8,1.8,0,0,0,1.43,1.54,1.32,1.32,0,0,0,1.51-1.3c0.42-5,2.15-3,4-.8a24.48,24.48,0,0,0,2.24,2c0.16-2.74,1.76-4.68,1.78-7.24,0-2,1.52-3,3.59-2.91l0.12,0.12c0,1.42-1.47,1.93-2,3-1.29,2.62.44,4.41,2,6.17,0.46,0.52,1.18,1.41,1.79.61,1.25-1.67-1.13-2.45-1.25-3.88-0.06-.68-0.74-1.48.18-1.94a1.31,1.31,0,0,1,1.81.8c0.3,0.64.49,1.32,0.75,2,1.59-1.79,1.59-1.79,2.22-5.25,1.15,1.24.15,5.06,3,3.78,2.09-1,2.86.11,4.19,0.58,0.12,0.44.11,1,.75,1a0.33,0.33,0,0,0,.23-0.23c0-.65-0.62-0.59-1-0.76,0.28-1.57-1.24-3-.43-4.63,1.92,0,2,1.56,2.43,2.73,1,2.43,3.72,3.22,5.17,1.27,0.72-1,1.2-1.79,2.52-1.59,0.47,2.34,2.5,3.52,3.88,5.19a1.49,1.49,0,0,0,2.26.33c0.93-.79.65-1.76-0.05-2.59s-2.53-1.22-2.31-3c1.89-.23,3.73-2.62,5.7.24,1.22,1.77,1.54,1.6,2.72-.2,0.51-.78,1-0.37,1.58-0.22,2.42,0.64,2.64-.76,2.67-2.67s-0.78-4,1-5.94c1.36,3.76-.36,7.63,1.71,11.39,0.44-3.33,1.2-4.64,3.58-1.55,0.9,1.17,2.18,1.73,2.72-.71a75,75,0,0,0,1.6-8.63c0.25-2.41.15-5.46,3.54-7.21-0.5,2.9-.53,5.26-1.54,7.61a13,13,0,0,0-1,8c0.33,1.51,1.18,2.62,2.7,2.62s2-1.2,2-2.61l0.17-.16c1.52,1.38,1.2,4.34,4,4.8,0.73-1.23-.07-3.36,2.21-3.39,0.93,1.15-.94,2.38.21,3.56,4.1-2.54.36-5.23,0.14-7.81l0.21-.17c3.2,1.6,3.42,5.58,6.36,7.83-0.26-2.85,1.53-2.63,3.31-2.45l1.35,0c-0.06,2.27.59,3.87,2.7,1.51,1.18-1.31,1.83-.42,2.81-0.3,2.15,0.26,4.78,0,6-1.31,1.46-1.61-.68-3.44-1.56-5.19-1-2.1-3.43-3.43-3.83-6.61,4.73,2.45,5.29,7.51,8.44,10.55,2-4.9,4.58-8.26,9-7.72a64.51,64.51,0,0,0-5.25,4.24c-1.44,1.42-.95,3.22-0.17,4.87,0.32,0.68.8,1.51,1.62,1.27,1.68-.48.74-2.13,1.2-3.18a1.44,1.44,0,0,1,.59-0.28c0.32,1.83.23,4.44,2.31,4.51,1.39,0,2.14-2.34,2.31-4.11a3.38,3.38,0,0,1,.29-1.08c0.79-1.71,1.45-3.61,4-3.51,0.05,3.75-4.13,5.69-3.37,9.42,1.88,0.19,2.12-1.49,3-2.37,1.94-1.85,3.65-4.91,6.68-1.06,0.71,0.9,2,2.16,3.54,1.59,1.83-.68,2-2.61,2-4.1,0-3.38,1-6.29,3.2-9.78-0.16,3.71-1.53,6.45-1.31,9.51,1.07-.7.8-2.36,2.48-2.37a31.77,31.77,0,0,0,.68,3.57c0.4,1.31,1,3,2.55,2.78,1.77-.26.48-2,0.81-3.1l0.71,0c1,1.52,2.43,3.81,4,2.93s0.08-3-.74-4.52c-0.52-1-1.64-2.64-.19-3.28,1.87-.83,1.67,1.41,1.93,2.34a10,10,0,0,0,3.61,5.05,3,3,0,0,0,3.51.13,1.4,1.4,0,0,0,.32-2c-1.55-2.46-2.68-5.28-6-6.15a39.57,39.57,0,0,1-5.46-2.28c6.23,0.66,12.5,1.27,14.44,8.83,0.19,0.73-.26,3.13,2,2,1.56-.76,1.37-2.25,1-3.59-0.18-.69-0.82-1.25-1.05-1.93-0.78-2.3.32-4.18,1.64-3,1.66,1.45,1,3.37.75,5.23a28.43,28.43,0,0,0-.16,5.93c0.14,1.59,1.56,2.18,3,2.25,0.64,0,1.55-.3,1.09-1.38-1.51-3.51,1.76-5.64,2.53-8.49,0.3-1.13,1-1.27,2.61-.28,3.54,2.19,2.43,6.38,4.82,8.86,0.54,0.56.43,1.83,1.67,1.59,1-.2,1.23-1.08,1.37-2a56.21,56.21,0,0,1,1.53-8.38c0.52-1.58.88-4.3,4.49-3.42-5,3.77-2.06,8.05-1.41,12.11a1.9,1.9,0,0,0,2.38,1.3,2,2,0,0,0,1.93-2c0-1.47.25-3-.77-4.29-0.86-1.11-1.26-2.28-.07-3.54,2.18,1.51,1.11,3.89,2,5.56s1.77,3.41,4.27,3.53c-1.3-3-1.08-5.89-1.57-9.26,2.53,1.72,5.78,2,5,5.79,0.49,2.42,2,.48,3,0.72,1.65-2.81,2.18,1.18,3.57.52l0.27-5.81c1.67,3.06,2.51,6.24,6.12,7.42,0.21-1.35-.86-1.91-1.09-2.8l0.12-.12c2.73-1.07,4.47.68,6.15,2.44,2-3.7-1.64-5.09-2.6-7.5l0.27-.24c3.23-.5,5.24.63,6.2,4,0.37,1.27,1.79,2.29,2.88,3.27a2.67,2.67,0,0,0,2,.64c0.89-.18.58-1.19,0.69-1.88,0.27-1.77-.46-3.39-0.77-5.07l0,0c2.36,1.5,1.89-1.34,3.42-2.71-1.52,5.64,1.35,8.14,5.09,10.12,0.67,0.35,1.39.87,2,.33a1.8,1.8,0,0,0,.27-2.39c-1.38-1.88-1.13-4-1.06-6,1.71,0.26,2.83,4.8,5.15.72a1.9,1.9,0,0,1,2.29,2.23,13.06,13.06,0,0,0-1.54.43c0.22,1.33,1.36.9,2.2,1.08,0.5,0.61.57,1.88,1.7,1.55,0.85-.25.54-1.26,0.56-2,0-1.54,0-3.08,0-4.62,1,2.38,1.54,4.86,3.55,6.56,1.15-.18.52-2,1.87-2,0.85,0.62.51,1.6,0.79,2.37s0.41,1.49,1.35,1.5a1.27,1.27,0,0,0,1.28-1.48c0.1-3,2-1,3.13-1.17l1.3,0.71c0.25,0.62,0,1.86.9,1.68,1.27-.26.54-1.61,0.75-2.47l0.7-1.45c0.46,1.25.59,2.65,1.73,3.6a2.82,2.82,0,0,0,3.08.59,2.15,2.15,0,0,0,1.65-1.81c0-1.27-1.12-1.74-2.11-2.31-1.31-.76-4.45-0.56-3.23-2.87s2.2,1.34,3.75,1.22c1.36-.1,2.43,2.6,4.06.46s4-2.17,5.35-.15a6.76,6.76,0,0,0,2.94,2.68l0.2,0.14-0.24-.1c0.42-1.54-1.32-2.92-.3-4.74a10.26,10.26,0,0,0,1.57,2.2c1.51,1.2,1.18,4.43,3,4.27s0.42-3.39,2-4.72c0.61,1.25.42,3.15,2.13,3.49,0.77,0.16-.13-1.64,1.25-1.78a16.47,16.47,0,0,0,0,2.29c0.11,0.78-.35,2.09.85,2.12s1.26-1.32,1.29-2.27c0.06-1.68,0-3.36,0-5.25,3.88,1.35,5.72,3.93,6.24,7.83l0.59-12.38,1.91,0.07c0.08,2.21.13,4.43,0.26,6.63,0,0.55-.34,1.63,1.06,1.11,2.89-1.06,3.45,1.37,4.47,3.1,0.7,1.19.47,3.63,2.14,3.38,1.86-.28,1.75-2.66,2-4.3a13.3,13.3,0,0,0,0-2.58l2.27,0,0,0c-0.07,1.59,1.08,2.06,2.28,2.49,0.92,1.07,1.78,1.81,2.19-.34a3.1,3.1,0,0,1,.72.05l1.51,0.07a2.56,2.56,0,0,0,2.36,2.12V1064l2.35,3.69c1.2,1.88,2.89,1.76,4.54.89,2-1,.78-2.18.25-3.65-1.61-4.41-5-7.82-6.46-12.27l0,0c4.65,2,5.89,6.72,7.87,10.65,2.08,4.12,3.68,5.39,8.3,5,4-.3,2.53-3.81,3.63-6l2.22,4.26c0.34,0.65.58,1.5,1.5,1.42,1.24-.1,1.05-1.17,1.11-2s0-1.49,0-2.23l0,0c1.58,1.45.7,4,2.36,5.78l7.27-15.41c1.57,1.44-.21,3.14.91,4.33l-0.82,2.36a7.43,7.43,0,0,0-2.56,3.53,4.24,4.24,0,0,0,.67,4.21,1.54,1.54,0,0,0,1.27.5c1.28-1,.41-2.51.76-3.76h2c0.14,0.75,0,1.62.83,2.08,0.17,1.4,1.15,1.61,2.31,1.57,1.6-1,2.89-1.37,4.61.29,2,1.89,3,.77,2.76-1.71l0.07-.07c1.27-.32,1.46,1.64,2.71,1.36,0.74-1.72-.62-3.86,1.3-5.67a23.65,23.65,0,0,0,.82,3.18c0.57,1.34,1.77,2.45,3.12,2.27,1.74-.24.8-2,1-3.08,0.31-1.63-.85-3.53.77-5.08,2,2.51.68,6.4,4,8.22,0.89-2.1-1.11-3.84-.06-5.72,1.58,1.37.44,4.64,3.13,4.93,1.78,0.19.28-2.59,2-3l1.83,3.31,0.28-2.86,2.07-.73c0.31,1.52.14,3.63,2.33,3.57,1.7,0,2.64-1.58,3-3.28,0.13-.71,0-1.59,1-1.7s1.22,0.69,1.58,1.33c0.6,1.08,1.87,2.94,2.38,2.38,2-2.12,2.72.34,4,.63,1.24-1.27,2.55.84,3.8-.07,2.21,1.37,3.8-1.75,6-.79,1.29,0.57,2.58.78,3.6-.7a3.09,3.09,0,0,0-.05-3.77,3.89,3.89,0,0,1,.07-4.41c2.26,2.51,1.25,5.24,1.57,7.68,0.1,0.74,0,1.65,1,1.76s1.16-.77,1.26-1.51c0.26-2,.46-3.94.71-5.9,0.12-.91.48-2,1.54-1.6,0.89,0.3.48,1.22,0,1.86-1.33,1.78-.67,3.83-0.77,5.77a1.48,1.48,0,0,0,.62,1.18c0.72,0.35,1.12-.28,1.39-0.84,0.64-1.36.59-3.22,2.57-3.63,1,1.25-.09,2.26-0.08,3.32,0,0.78-.49,2,0.87,2a1.83,1.83,0,0,0,1.85-1.55c0.15-1,.12-2,0.18-3,0.17-2.55-.43-5.24,1.35-7.6-0.78,3.23,1.09,5.81,1.88,8.61,0.5,1.78,1.66,2.83,2.82.23l0.87-.07c0.32,1,.1,2.53,1.5,2.7,1.6,0.19,1.32-1.49,1.78-2.4a23.5,23.5,0,0,0,2.17-9.7c0.33,3.14.32,6.22,0.35,9.31,0,0.67-.23,1.65.87,1.69a1.34,1.34,0,0,0,1.29-1.16c0.29-1.33.55-2.67,0.8-4,0.36-1.92.2-4,1.85-6.32,0.44,4.27.8,7.81,1.19,11.34,0.11,1,.41,2,1.61,2.22,1,0.15,1.26-.58,1.43-1.36l2.1,0c0.31,1.24.84,2.43,2.28,2.44,1.09,0,.54-1.09.7-1.7a4.39,4.39,0,0,1,2.8-.66c1,3.1,2.56,3.64,5,1.79,0.47-.35.49-2.17,1.55-0.39,1.35,2.26,1.79.66,2.71-.52,2.44-3.11,2.92-7.44,6.85-10.87-0.89,3.59-1.35,6.26-2.25,8.77-0.48,1.33-1.51,2.45.13,3.49s3.13,0.78,4.69-.59c3-2.63.9-5.11,0.09-7.66l0.15-.15c3.28,0.79,1.9,3.52,2.28,5.51,0.17,0.9-.38,2.29,1,2.41s1.38-1.36,1.5-2.22c0.32-2.27.38-4.58,0.55-6.88,0.65,3.35,2.12,6.3,2.88,9.77,4.42-3.26-.23-9.16,3.83-12.1-1.58,3.64-1.34,7.1.38,11.23a11.2,11.2,0,0,0,1.77-6.2c0.07-.83.16-1.94,1.37-1.78,1,0.13.75,1.15,0.77,1.84,0,2.26,0,4.51,0,6.77H732l2.22-6,0.69-.05c0,1.58,0,3.17.15,4.74,0.1,0.9.14,2.22,1.29,2.35s1.33-1.13,1.52-2.06c0.24-1.19.47-2.37,0.71-3.56,2.36,0.22,1.89,3.84,4.51,3.76l0.28,0.13-0.28-.12,0.24-3.14c1.36,1.1,1.07,3,2.74,3.31,0.89,0.17,1-.65,1.15-1.15,1-3.84,2.3-2.14,3.77-.29s6.56,2.75,7.25,1.06c0.85-2.08,2.66-4,2-6.54l0.76-.75,0.76-.73c0.76,0.16,1.77.49,0.92,1.35-3.4,3.46.8,4.33,2.05,6.1,0.6,0.84,1.29.2,1.59-.62,2.16-5.93,7.49-9.77,10.12-15.39,0.34-.72,1-1.33,1.76-0.94,1.11,0.55.61,1.5,0.18,2.22a10.94,10.94,0,0,1-1.64,2c-3.93,4-5.1,8.7-3.67,14.2l3.07-8.86c1.37,3.14-.15,5.61-0.12,8.3,3.21-1.41,2.71-5.08,4.88-6.95,1.31-1.12.65-5.06,3.21-3.75,1.68,0.86-1.79,2.61-2,4.4-0.59,2-.62,4.1-2,5.81a0.84,0.84,0,0,0,.07,1.29,1,1,0,0,0,1.44-.6c0.88-1.85,1.69-3.72,2.53-5.59,0.14-.25,0-0.86.63-0.45a0.52,0.52,0,0,1,.09.34c0.13,1.73.19,3.46,0.42,5.18,0.09,0.67.14,1.69,1,1.8,1.15,0.15,1.32-1,1.52-1.76,0.52-2,.91-4.12,1.41-6.5,1.51,1.66,1.52,3.27,1.7,4.85,0.12,1.12-.51,2.89,1.24,3s1.95-1.68,2.26-2.95c0.39-1.61,0-3.56,2.48-4.38v7.94c1-1.62,2.3-2.95,2.37-5.17,1.37,2,1.3,4.54,4.09,5,0-2.56,1.2-4.55,2.33-7.37,0,3.85,2.12,6,3.39,8.7,0.67-1,1.16-1.66,1.66-2.36,1-1.36-.86-4.12,1.3-4.33,1.4-.14,3,1.85,4.52,2.89,0.1,0.07.18,0.17,0.28,0.24,0.58,0.41,1.11,1.19,1.92.66s0.46-1.33.5-2.05c0.12-2.08-.5-4.19.36-6.74,0.73,2.56.17,4.78,0.85,6.93,1.2,3.83,4.42,3.46,7,3.37,2.1-.08,1.08-2.61,1.46-4a1,1,0,0,1,.87-1c1.45,0.93,1.18,2.63,1.78,3.95,0.43,0.94.3,2.71,1.72,2.45s0.44-1.89.67-2.89l0.34-.33c1.19,0.77,2.2,2.64,3.71,1.79,1.19-.67.33-2.53,0.53-3.84,0.26-1.68-.66-3.66,1.35-5.4,0.87,3.17.24,6.4,2.36,9.11,1.5-1.58,1.11-3.58,2-5.27,0.84,1.92-.35,3.93,1,5.64,2.21-1.81,1.06-5.61,4.62-6.57,0,1.75-.07,3.23,0,4.71,0.07,1-.54,2.54,1,2.8s2.12-1.05,2.55-2.26c0.8-2.25,1.53-4.53,2.4-7.09,1.11,1.53,0,2.54.15,3.6,0.29,1.76-.11,4.69,1.71,4.74,2.36,0.07,1.59-2.78,1.81-4.51,0-.37,0-0.75,0-1.12,0.15-.9-0.44-2.41.89-2.47,1.54-.07,1.32,1.54,1.34,2.58,0,2.31.35,4.42,2.25,6.06,0.76,0.66,1.34,1.59,2.49,1.19a2.23,2.23,0,0,0,1.26-2.12c0.26-2,.52-3.93.79-5.9l0,0c1.88,0.24,1.38,1.75,1.52,2.89,0.15,1.3.14,2.65,1.52,3.33,2.43-3.55-1.92-6.79-.18-10.48,1.93,1.41,1.47,3.26,1.74,4.88,0.19,1.13.06,2.87,1.88,2.54,1.35-.24,1.83-1.58,1.65-3-0.08-.6-0.41-1.17-0.53-1.78s-0.31-1.58.59-1.91c1.11-.4,1.57.46,1.89,1.29,0.55,1.47.17,2.92-.09,4.39s-0.49,2.86,1.63,3,2.58-1,2.53-2.76c0-1.61,0-3.23.13-4.84a1.29,1.29,0,0,1,1.49-1.3c0.86,0.1.62,0.93,0.63,1.48,0,1.61-.09,3.24,0,4.84,0.07,0.87-.55,2.33.76,2.51s1.48-1.38,1.85-2.37c0.74-2,.31-4.34,2-6.51,1.05,2.11.5,3.95,0.61,5.72,0.07,1.28-.73,2.91.79,3.73s2.53-.48,3.62-1.26l2.2-.67c0.19,0.87.41,1.91,1.42,2,1.28,0,1.45-1.14,1.63-2.12,0.42-2.34.81-4.69,1.29-7.51,2.6,2.67,1.12,5.64,2,8.1,2.48-1.62,1.62-4.51,2.59-6.67,0.35-.78.61-2,1.68-1.49s0.59,1.48.13,2.26c-1.4,2.38-1.12,4.77-.32,7.44,2.43-1.8,1.29-5.43,4.34-7.13-0.19,2.22-.72,3.83-0.19,5.39,0.46,1.34-.12,3.63,2.54,3.24,2-.3,3.39-1.09,3.17-3.63-0.17-1.89-.46-4,1.2-5.71a8.17,8.17,0,0,0,2.59,7.48c0.55,0.52,1,1.18,1.85,1,1.19-.21,1-1.27,1-2.09a12.82,12.82,0,0,1,1.62-5.3c1,2.43.57,4.27,0.68,6,0.05,0.78-.37,2,0.89,2.07a2.57,2.57,0,0,0,2.07-1.36c0.85-1.13.14-2.94,1.46-3.85,1.59,1.28-.45,4.56,1.91,4.31,4.29-.47.62-4.42,2.36-6.74,2.14,4.46,2.71.87,4-1.64,0,2.5-.08,4,0,5.47a4.37,4.37,0,0,0,3,3.88c2.08,0.74,2.21-1.34,2.91-2.57,0.52-.9,1.2-1.71,1.87-2.65,1.21,1.51,1.76,3.57,4.1,3.26l1.47-.89c1,0.25,1,3.27,2.84,1l0.25-.24c0.74,0.37,1.09,1.5,2.09,1.27s0.61-1.17.71-1.85l0.73-.74c0.35,1,.31,2.26,2,2.4l0.46-3.19c1.27,0,1,1.92,2.54,1.55l0.49-6c0.76,1.8.95,3,1.66,3.74,1,0.93,2,3,3.56,1.75s-0.7-2-1.23-2.91-1.26-1.75-.51-3,1.85-1.08,2.94-.93c2.69,0.36,4.36,2.12,5.71,4.3,0.46,0.74.26,2.34,1.75,1.85,1.18-.38.76-1.69,0.84-2.63,0.26-3.09.47-6.18,0.7-9.26,0.06-.75.08-1.56,1-1.74a1.15,1.15,0,0,1,1,.39,1.27,1.27,0,0,1-.31,1.66c-1.12,1.13-.68,2.56-0.84,3.88-0.54,4.38,1.05,8.42,1.82,12.7,1.91-.57,2.63-2,3.5-3.57,1.93-3.46,2.18-7.25,2.75-11,0.14-1,.2-2.33,1.38-2.36,1.49,0,.94,1.43,1.06,2.31,0.33,2.57.65,5.11,2.07,7.41,1,1.58.26,5.14,2.21,4.8s1.45-3.78,1.58-5.91c0.21-3.39.22-6.79,1.33-10.53,2,1.69,1.72,3.57,1.76,5.34,0.07,3.09-.4,6.21.35,9.27,0.2,0.81.56,1.78,1.72,1.55,1-.2.79-1.11,0.87-1.81,0.24-2.09.1-4.31,0.79-6.24,0.95-2.67,2-5.63,5.74-6.06-2.83,2.61-3.81,5.77-2.42,9.08,0.74,1.76.94,3.55,1.56,5.27,0.36,1-.32,2.89,1.62,2.81,1.57-.06,1.64-1.67,2-2.78a23.14,23.14,0,0,0,1-7.79c1.78,2,2.4,4.66,4.38,6.42,1.33,1.18,2.55,2.19,4.06.42,1.1-1.28,2-2,3.37-.17a2.17,2.17,0,0,0,2,.44c0.72-.31.52-1.34,0.37-2-0.44-2.06-1-4.09-1.5-6.13l0.13-1.1c1.37,2.34,2.77,4.66,4.09,7,0.52,0.92,1.25,1.93,2.19,1.7,1.35-.34.45-1.63,0.54-2.54,0.19-2.09-1.47-4.11-.31-6.69,1.8,3.32,2.3,6.92,5.48,8.85,0.87,0.53,1.68,1.22,2.71.7,1.27-.64.42-1.7,0.38-2.63-0.12-2.6-.2-5.2-0.24-7.8a2.48,2.48,0,0,1,1.25-2.52,1.41,1.41,0,0,1,1.32.23c0.79,1,0,1.73-.41,2.64a6.55,6.55,0,0,0,1.14,7.85c0.69,0.73,1.31,1.67,2.43,1.41,1.32-.31,1.44-1.57,1.65-2.66,0.31-1.57-.23-3.32.76-5.09,1.44,1.63,1,3.18.92,4.57-0.06,2.75,1,2.81,3.16,1.8s3.69-3.22,5.87-3.7c1.29,1.05.22,6.47,3.81,1.61,0.84-1.14,1.86-.63,2.24.51a11.82,11.82,0,0,1,.45,3.28c0.06,1.78.71,2,2.36,1.42,3.06-1.05,3.91-3.05,2.95-6,1.4-.27,2,0.52,2.82,1.1,6.29,4.62,5.44,5.14,8.4-2.68a1.72,1.72,0,0,1,.42-0.45c0.66,1-.29,2.95,1.23,3.26,2.71,0.56,1.38-3.49,3.74-3.7,0.95,1.37.45,2.91,0.57,4.34a4,4,0,0,0,4.51,3.94c2.62-.23,1.1-2.74,1.36-4.24,0.18-1-.48-1.87-1-2.72a1,1,0,0,1,.39-1.55,0.93,0.93,0,0,1,1.29.93,8.83,8.83,0,0,0,3.78,8.07c1.11,0.87,1.78,1.92,3.37,1.42s2-1.65,2-3.17c0-1.68-.5-3.4.28-5.19,1,4,2.09,7.69,5.59,10.78a22.6,22.6,0,0,0-1.88-11.52c3.86,1.43,5.44,3.69,4.82,7.33-0.11.66-.78,1.61,0.18,1.93,1.12,0.38,1.38-.7,1.65-1.54,1-3.28.37-6.67,0.68-10l2,0a14.19,14.19,0,0,0,4.77,10.87c0.59,0.52,1.47,1.25,2.3.59,0.68-.53.15-1.38,0-2.08a13.65,13.65,0,0,0-2.36-5c-0.82-1-1.68-2.91-.49-3.69,1.37-.89,2.26.83,2.93,2,1.35,2.39,2.72,4.78,4.39,7.69,1.27-3.63-.9-7.79,2.87-10-1.81,3.39-.63,6.31,1.08,9.34,2.21-2.62-.45-6.79,3.16-8.92,0.29,2.74,0,5.46,2.51,7.25,0.91,0.66,1.63,1.57,2.93,1.09,1.59-.58,1.3-1.9,1.26-3.13l0.26-.23a4.17,4.17,0,0,0,5-2.65c0.49-1.06.8-2.37,2.3-2.55l0.23,0.22c-0.08,1.33,0,2.64-1,3.81-1.18,1.46.27,2.6,1.13,2.92,2.58,1,3.5-4.16,6.63-2.06l0.39-1.7,0.21-.21c2.26,0.14,2.46,2.6,4,3.58,1.16,0.72,1.82,3.22,3.34,2.12,1.29-.93-0.22-2.59-1.07-3.78a1.45,1.45,0,0,1,0-2c0.76-.63,1.37.09,1.87,0.62,1.86,2,3.67,4,5.53,6,0.77,0.82,1.85,1.82,2.85,1.31,1.16-.59.42-2,0.26-3-0.32-2.08-1.6-4.06-.92-6.45,4.42,1.61,5.59,6.5,9.85,8.49l-0.52-3.66,0.28-.23c3.19,1.38,2.2-1.57,2.89-2.78l2.08,0.72c0.31,2.53.8,4.69,3.63,1.66,0.62,1.16-.48,3.1,1.26,3.24,1.58,0.13,1.38-1.78,1.75-2.86,0.77-2.2.3-5,3.26-6.15,1.17,1.7-.31,3.21-0.06,4.75,0.15,0.92-.43,2.25.8,2.62,1.84,0.54.85-1.83,2-2.28a37.76,37.76,0,0,0,.3,3.79c0.27,1.55,1.16,3.34,2.76,2.77,1.14-.41,2.9-1.92,1.37-4.13a4.47,4.47,0,0,1,0-4.65,8.35,8.35,0,0,1,1,.8c1.12,1.25.28,4.42,2.22,4.11s1.4-3.35,2.08-5.14a2,2,0,0,0,0-.37c0.18-1-.25-2.62,1.25-2.75,1.88-.16.86,1.6,1.19,2.47,0.49,1.28,1.44,3.9,2.37,2.55,2.29-3.32,2.17.2,2.65,0.71,0.72,0.76.88,2.24,2.19,2.27,1.68,0,1.18-1.9,2-2.69,1.4,1.16,1.59,3,2.94,5.56,0-3.41,1.32-5.06,2.43-6.81,0.4-.63.74-1.45,1.56-1.42,1,0,.74,1.08,1,1.72,1,2.83,2.7,4.19,5.64,2.36,0.82-.51,1.6-0.92,2.3-0.09,1.19,1.4,2.39,2.16,4.11.83s1.48-2.81.47-4.46c-0.34-.55-0.86-1.45.1-1.91,0.76-.37,1.4.16,1.89,0.79,1.06,1.36,2.7,2.56,3.09,4.08,0.92,3.52,3.17-.19,4.71,1.11,0.78,0.66.19-1.86,1.19-2.43,0.92,0.69,1.79,1.36,2.68,2,0.66,0.49,1.19,1.52,2.17,1.05s0.62-1.53.63-2.35c0.05-2.36-.13-4.74.07-7.08,0.22-2.54.71-5.08,3.54-6.57a9.88,9.88,0,0,1-1.18,6,14.31,14.31,0,0,0-1.24,9.71c0.25,1-.08,2.66,1.33,2.78s2.14-1.51,3.15-2.36c1.25-1.05-1.64-1.84-.38-3.24,3.14,0.86,5,3.4,7.2,5.52,0.58,0.56.75,1.85,1.83,1.52s1.16-1.55,1.19-2.5c0.08-2.43,0-4.86,0-7.3a6.59,6.59,0,0,1,.84,4c-0.07,2,.33,4.12,2.62,4.15s1.77-2.18,2-3.75-0.08-4.36,1.84-4.28,0.65,2.7,1,4.16c0.25,1.08.15,2.49,1.57,2.59,1.75,0.12,1.24-1.45,1.41-2.46,0.43-2.47.31-5.23,3.55-6.52-0.05,3.26-1.61,6.42.45,9.45a9.24,9.24,0,0,0,2.31-4.91c2.26,3.49,4.23,6.6,8.31,7.27,0.76-3.24-3.45-4.77-2.33-8.1,3.54,0.84,2.22,6,6.09,6.48,0.95-2.54-.67-5.55,1.1-8.1,2,1.58,1.18,3.9,2.05,5.65,0.72,1.45,1.47,2.2,2.32.27,1-2.35,1.7-.76,2.42.1s1.12,3,2.87,2.29c1.38-.52,1.22-2.29,1.4-3.6,0.15-1.1,0-2.24.13-3.35s-0.49-2.69,1.08-2.71,1,1.66,1.13,2.68c0.06,0.36,0,.75,0,1.12,0.25,1.61-.65,4.21,1.55,4.42,2.57,0.24,1.05-2.42,1.51-3.73,0.28-.81.29-1.9,1.2-2.15,1.16-.32,1.38.89,1.65,1.62,0.61,1.62,2.09,2.42,3.13,3.63,1.59,1.85,3.3.39,4.8,0s0.93-2,.72-3.2a3.67,3.67,0,0,1,.16-2.94l2.87,3.28c0.58-.69-0.21-2.09.77-2.29s1.47,1,2,1.84c1,1.65.79,4.89,4.28,3.57h1.43c0.25,0.67.33,1.82,1.2,1.57a2.46,2.46,0,0,0,1.66-2.26c0.06-1.7,0-3.4,0-5.11,0.51,3.49,2.16,5.66,5.43,6.65,0.91,0.28,1.94,1,2.66-.16,0.55-.87-0.09-1.57-0.7-2.27-1.05-1.21-2-2.56-2.93-3.84-0.57-.74-1-1.62-0.22-2.32s1.56-.06,2.1.68a41.09,41.09,0,0,1,2.56,3.62c0.9,1.57,1.59,3.26,3.84,3.51a21.43,21.43,0,0,0-.46-7.56c-0.17-.69-0.31-1.64.62-1.89,1.28-.34,1.31.75,1.47,1.6a35.28,35.28,0,0,0,.85,4.38c0.41,1.28.19,3.62,2.21,3.2,1.22-.26.23-2.15,0.1-3.31a14.09,14.09,0,0,1-.17-2.23c0-.8-0.38-2,0.8-2.16a1.93,1.93,0,0,1,2,1.38,53,53,0,0,1,1.59,5.73c0.24,1.17.44,2.5,1.74,2.49a2.88,2.88,0,0,0,2.74-2.56c0.38-2.17.63-4.36,1-6.93,1.42,2.2-.19,4.55,1.48,6.28s3.31,2.86,5.47,2.79,2.73-2.64,4.35-3.76c2.12-1.48-.13-3.47.1-5.47,1.81,1.59,3,3.17,3.24,5.22s1.37,3.26,3.45,3,1.83-1.93,1.8-3.47c0-.89-0.38-1.91.66-2.93,0.92,2.6,1.5,5.23,3.17,7,3.81-1.55.8-5.66,3.27-7.84a48.77,48.77,0,0,0,4.11,9.89c1.35-2,.44-3.68,1-5.13,7.43,5.13,8.24,5.2,8.88.61,1.44,1,2.91,2.7,3.82-.59,0.25-.92,2.32-1.35,2.47-3a1.09,1.09,0,0,1,.87-0.57c0.81,0,.86.73,0.92,1.35a7.37,7.37,0,0,0,4.06,6.33c0.19-.93.31-1.52,0.43-2.1,0.23-1-.56-2.57.59-3.07,1.32-.58,1.61,1.17,2.38,1.85,1,0.9,1.95,1.88,2.91,2.83a1.22,1.22,0,0,0,1.65.33c0.69-.5.25-1.2-0.07-1.65-1.36-1.84-2.8-3.63-4.78-6.17a19.07,19.07,0,0,1,2.51.78c1.9,1,3.91,2.49,4-1.47a1.47,1.47,0,0,1,1-.9c0.87-.15.83,0.65,1,1.23a23.43,23.43,0,0,0,.77,3.26c0.5,1.35.87,3.34,2.79,2.9s2.8-2.19,2.44-4.37c-0.17-1-1.11-2-.18-3.24,3.16,1.23,2.73,4.41,3.7,6.79,0.34,0.83.6,1.86,1.61,1.77,1.32-.11.68-1.34,0.81-2.09,0.36-2-.7-4.38,1.89-6,0.36,1.62.61,3,1,4.26,0.27,1-.37,2.48,1.11,2.85,1.27,0.32,1.84-1.07,2.77-1.58,2.74-1.49.75-4.47,2.05-6.48,0.59,2.39,2.79,3.68,3.34,5.93a1.34,1.34,0,0,0,1.56,1.25,1.83,1.83,0,0,0,1.18-1.73c0.42-2.38-.15-4.53-2.48-6.89,3.85,1,6,2,5.64,5.65-0.14,1.49-1.11,4.34,1.1,4.4,2.58,0.07,1.62-2.81,1.67-4.5,0.13-4.29,2.44-6.66,6.86-6.75a12.51,12.51,0,0,1-2.82,3.41,4.77,4.77,0,0,0,.29,7.18c2.81,2.58,3.36-.55,4.72-1.83,1.89-1.78,2.23-4,1.79-6.76a6.11,6.11,0,0,1,3.17,2.9,14.86,14.86,0,0,0,2.52,4.5c0.71,0.73.81,2.46,2.29,1.89,1.31-.5.64-2,0.76-3,0.2-1.75-.46-3.61.48-5.43,2.68,2.18,2.5,5.27,3.51,7.86,0.37,1,.84,1.91,2,1.89s1-1.25,1.46-1.86c1.95-2.4,1.14-5.39,1.86-8.94a46.81,46.81,0,0,1,3,5.77c0.7,2,1.82,3.17,4,3.29,1.92-.06,1.19-2.14,2.21-2.89a6.43,6.43,0,0,0,.82,2c1.14,1.26,2.68,3.2,4.26,2.06,1.78-1.28-.69-2.35-1.26-3.53-0.73-1.5-1.56-3.61.1-4.32,2.22-.93,1.22,1.68,1.7,2.64,1.34,2.65,3.67,4.5,6.24,4.53,3,0,3.09-2.94,3.19-5.39,0-1.17,0-2.51,1.77-3.09,0.4,1.6.79,3.1,1.15,4.62a5.63,5.63,0,0,0,3.35,3.73c0.84,0.41,1.42-.32,1.66-1,0.57-1.76.53-3.43-1.08-4.72a3.48,3.48,0,0,1,.28-0.48c2.77-.12,3.93,1.58,4.53,4,0.17,0.67.26,1.65,1.28,1.49a1.65,1.65,0,0,0,1.16-1.7c0.06-.49,0-1,0.11-1.48,0.15-.88-0.36-2.22,1.23-2.21,1.26,0,1.44,1.09,1.75,2.07,0.41,1.31.33,2.84,2.19,4.87,0-2.84,0-4.63,0-6.43,0-2.05.7-3.51,3.9-3.37-2.74,2.66-3,5.43-1.85,8.21,0.45,1.07,1.82,1.17,3,.54,1.87-1,4.44-1.47,3.93-4.56h0a5.72,5.72,0,0,1,3.82,2c0.69,0.75.54,2.61,2.07,2.17s1.35-2.13,1.59-3.44-0.68-3.4,1.93-3.94c0.15,1,.25,1.94.46,2.87,0.38,1.69,1.26,3.26,3.13,3s2.07-1.87,2-3.48c-0.05-1,0-2-.06-3l0,0a3.89,3.89,0,0,1,3,4.43c-0.05.79-.26,2,1,2a2.45,2.45,0,0,0,2-1.43c1-1.71.49-3.73,0.93-5.67,1.89,1.45,2,3.24,2,5.12,0,1.08-.73,2.9.94,3.08,1,0.11,2-1.29,2.44-2.5a26.4,26.4,0,0,0,.64-2.6c1.24,1.32-.77,4.4,2.4,4.25,2.77-.13,2.55-2.44,2.44-4.48a2.11,2.11,0,0,1,1.3-2.41l0.39,0.36c-1.94,3.84,1,6,2.93,8.84,1.3-2.17.07-4.46,1.28-6.44,1.86,0.78,2.29,2.49,3.09,3.93,0.64,1.17,1.4,2.36,2.54.36l1.15-.06c1,2.23,3.15,1.89,4.37,1.07s0-2.34-.76-3.45-1-2.2,0-3.28c1.14,0.06.94,1.08,1.35,1.62,1.54,2,3.14,5.09,5.47,4.8,2.05-.25-0.21-3.67,1.14-5.75,1.21,2.5-.17,5.25,1,7.8,2.64-2.12.8-5.77,3.62-8.13,0.39,2.17.66,3.75-.45,5.31-0.46.64-.83,1.42,0.15,1.82s1.29-.46,1.44-1.21c0.4-2.07.74-4.15,1.25-7,1.86,3.25,0,6.35,1.65,8.65,4.07-2.5.52-7.8,4.21-10.59a10.48,10.48,0,0,0,2.7,7.74c1.17,1.32,3.27,3,4.56,2.72,1.91-.42.61-3.4,1.74-4.87,0.74-1-1.44-2.05.35-2.86,2.11,1.32,1.44,4.89,4.37,5.56l0.22,0.14-0.25-.1c0.19-2.39-.9-5.1,2-7.68a63.24,63.24,0,0,0,.39,6.45c0.39,2.31,1.51,3.51,3.73,1.47,1-.89,2.37-1.52,2.08-3.23l0.75-.75a13.32,13.32,0,0,0,3.24,3.86c1-.77,0-2.37,2-3.12,0.33,0.5.78,1.23,1.28,1.93,1.84,2.56,4.29,1.08,6.34.66s1.05-2.47,1.2-3.86c0.17-1.6.16-3.22,0.35-4.81a1.05,1.05,0,0,1,1.31-1,0.88,0.88,0,0,1,.21,1.52c-1.31,1.35-.92,3-1,4.59s-0.15,3.33,1.8,3.52,3.59-.84,3.51-3.27l0.75-.11a6.07,6.07,0,0,1,1.44,1.05c1,1.33,1.61,3.6,3.86,2.38s2.68-3.43,1.76-5.82c-0.23-.6-1.31-0.95-0.4-2,3.64,1.24,4,5.06,6.22,7.73l1.36-9.85c-0.06,3.44,1.63,6.22,3,9.1,0.29,0.63.52,1.57,1.45,1.42a1.62,1.62,0,0,0,1.12-1.74c0.19-2.44.26-4.89,0.39-7.64,3.07,1.8,2,4.85,2.86,7.13,0.59,1.51,0,4,2.39,4,2,0,3-1.9,3.54-3.81a5.66,5.66,0,0,1,.36-1.43,1.82,1.82,0,0,1,1.07-.82c0.63-.11.66,0.56,0.87,1,0.54,1.09.1,3.25,1.81,3s1.48-2.34,1.83-3.73a19,19,0,0,0,.31-2.71c0.22,1.83,1.31,3.24,1.92,4.82,0.31,0.82-.16,2.25,1.43,2a2.31,2.31,0,0,0,1.94-2c0.34-2.13.54-4.28,0.8-6.47,1.76,0.61,1.93,1.92,1.91,3.35s0,3,0,4.48,0.54,2.52,2.13,2.43c2-.11,1.55-1.53,1.23-2.74a16.12,16.12,0,0,1-.15-6.63c0.47,3.13,2.3,5.09,4.8,6.7,2.21,1.42,3.35,1.45,3.12-1.66-0.14-1.95,0-3.91,0-5.87,0.74,2.56.89,5.14,1.6,7.64,0.2,0.7.17,1.66,1.2,1.51s0.9-1.09.76-1.79c-0.4-1.93-.89-3.85.08-5.79a98.91,98.91,0,0,0,3,11.49c1.62-2.56.05-4.57,0.18-6.57,0.07-1.15-.66-3,0.84-3.23,2-.31,1.07,1.69,1.33,2.73a13.17,13.17,0,0,0,.52,2.14c0.52,1.16,1.39,2.55,2.66,2.21s0.33-1.89.45-2.9l0.32-.26a9.92,9.92,0,0,1,3.5,3.25,1.42,1.42,0,0,0,1.91.65,2.67,2.67,0,0,0,.43-1.67c0.25-2.47-1-4.74-1.41-7.66,5.84,6.46,5.84,6.46,7.22,4.16,1,1,1.31,2.62,2.84,2.84,1-.71.59-2.25,1.94-2.73,1.23,1.71.73,4.25,2.71,5.48,1.33-1,.53-2.17.63-3.2l0.56-.51c6.94,0.05-2.07-3.55,1.29-4.35,1.41,1.47,5.05.58,4.88,4.59,0,1.14,2,.66,2.67-0.22a8,8,0,0,0,.9-2.59,6.53,6.53,0,0,1,.37,2.23c0.12,1.13-.37,3,1.47,2.78,1.35-.15.65-1.85,0.76-2.86,0.24-2.2-.33-4.6,2-7-0.06,3.68,1.84,5.67,3.61,7.72a2,2,0,0,0,1.95.86c1-.27.62-1.21,0.63-1.89,0-1.83,0-3.67,0-5.5,0.26,2.52,2.18,4,3.15,6a1.26,1.26,0,0,0,1.4,1c0.94-.27.52-1.25,0.79-1.86,0.74-1.65-2.27-2.46-.86-4.43,1.85,1,2.25,2.65,2.38,4.42,0.05,0.71-.1,1.68.84,1.85,1.36,0.25,1.15-.95,1.32-1.73s0.17-2,1.29-1.93,0.76,1.34,1,2.1c0.3,1,.69,1.94,2,1.83,1.05-.09,1.38-1,1.6-1.81,0.45-1.72.85-3.45,1.41-5.72,2.85,8.43,2.85,8.43,6.21,5.11,1.35,0.42.05,2.56,1.73,2.77,0.94-.77-0.17-2.37,1.41-3l1.66,2,2.53-3.85c0.06,1.12.06,2,.16,2.77s-0.37,2.28,1.2,2.23c1.23,0,1.46-1.28,1.55-2.24,0.13-1.34,0-2.7,0-4.05,1.43,3.11,2.82,6.45,6.73,5.9,2.82-.4,1.83-3.87,2.73-6,0.88,1.76-.29,3.8,1,5.41,2.05-1.68,4.59-2.71,5.37-5.45l0,0c-0.13,2.21,1.6,3.78,2,5.85a14.92,14.92,0,0,0,.25-3.3c0-1.32.61-1.48,1.63-.84,1.47,0.91,4.07-.08,4.27-1.64,0.12-1,0-2.37,1.25-2.33,1.75,0.05.9,1.68,1,2.61,0.2,1.95-.35,4,1.09,5.72,0.41,0.47,1.7,1.65,1.75.19,0.11-3.45,1.83-1.3,2.83-1,1.68,0.55,3.28,1.35,4.91,2-0.52-1.64-1.44-2.67-1.57-4.07-0.08-.86-0.25-1.89.79-2.23,1.33-.44,1.27.69,1.44,1.53,0.72,3.57,3.63,3.78,6.4,4.56,0.35-2-.76-2.82-1.78-3.74-0.43-.39-1-1-0.35-1.57a1.23,1.23,0,0,1,1.69.15c1.37,1.11,2.18,3,4.44,3.38-0.21-.89-0.43-1.58-0.52-2.29-0.13-1-.29-2.23.84-2.6,1.57-.52,1.36,1.08,1.61,1.87,0.52,1.63,1.07,3.09,3.13,3.11a1.4,1.4,0,0,0,1.45,1.2,0.83,0.83,0,0,0,.3-0.17l-1.42-1.31c-0.12-1.73-2.44-2.21-2.31-4.08,0.07-1-.23-2.1.94-2.61,1.53-.66,1.47.8,1.93,1.55a24.06,24.06,0,0,1,2.44,4.13c1.28,3.63,5.2-.63,6.65,2.35a1.73,1.73,0,0,0,1.39,0c1.22-.6.7-2,1.21-3,0.68-1.27-.47-3.34,2.07-4.23-0.09,2.43-.55,4.72,1,6.6a1.92,1.92,0,0,0,1.86,1c1-.25.52-1.2,0.62-1.87,0.17-1.22-.93-2.34-0.14-4,0.9,1.57,1.76,2.87,2.41,4.26,0.42,0.91.56,2,1.85,2s1.54-1.16,1.89-2.07c0.5-1.29.9-2.63,1.59-4.73,0.81,2.58.91,4.51,2.07,6,0.86,1.1,2.05,2.26,3.43,1.48,1.63-.93.61-2.52,0-3.61-0.81-1.42-2-2.62-1.49-4.54,2.23,0.55,2,2.57,3,4l2.29-1.79c0.42,1.39.69,2.59,1.15,3.72,0.33,0.83,1.27,1.74,1.93.84,1.45-2,1.86-.45,2.61.47s1.54,2.4,2.93,1.14c1.18-1.08.29-2.43-.52-3.3-1.47-1.58-2.27-3.45-3.76-6.18,4.55,3,6.47,7,9.47,10,1.58-1.93,1.17-4.52,2.86-6.07,1.75,0.93-.1,2.23.49,3.23,4.18-.69.79-4.42,3-6.75,1,4.82,3.26,8.69,3.35,13.14,0.13,6.59.06,13.19,0,19.78,0,6.92.75,6.14-6.2,6.14H5.2C3.59,1099.73,2,1099.7.35,1099.68Zm291.13-30.62,0.13,0.13-0.16-.11c-0.06-.82.07-1.76-1.07-2-0.4-.08-0.76,0-0.72.49C289.78,1068.63,290.7,1068.79,291.49,1069.06Zm115.66-4.53a9.88,9.88,0,0,0-.18,6.69A6.79,6.79,0,0,0,407.15,1064.53Z" transform="translate(0 -1048.34)"/><path class="cls-2" d="M0,1136.1v-42.25c2.29,0.55,2.29-1.39,2.3-3.69,0-2.93-.51-6,0.44-9.4,1,1.77.5,3,.55,4.11,0.12,2.78-1.32,6.66.84,8.05,2.58,1.67,3.2-3.3,5-4.73a1.13,1.13,0,0,0,.5-0.48c0.91-5.5,1.86-2,2.6,0,1.32,3.64,2,3.53,3.91.15s1.36-8.46,4.68-10.49c0.46,3.24-.62,6.13-0.79,9.16-2,1.32-1.39,3.68-1.18,5.83a1,1,0,0,0,.82.65c1.06-.66,1.22-2,1.22-3.45,0.17-3.79,1-7.14,3.19-9.79a3.74,3.74,0,0,1,.16,3.11c-0.84,3.88-1.72,7.74-2.48,11.65-0.17.87-.36,2.19,0.59,2.62s1.4-.44,1.79-1.36c1.06-2.49,3.17-4.74.79-8a2.32,2.32,0,0,1,.1-2.76c0.77-.68,1.41.25,1.82,1.1,1.22,2.55,2.55,5.05,2.82,8.34,1.05-3.2,2.6-6,1.84-11.06,2.1,3.46,1.54,6.08,1.72,8.47,0.12,1.59-.42,4,1.12,4.29s1.59-2.27,2-3.8c0.8-3.21,1.41-6.51,2.22-9.71,0.24-1,.95-1.66,1.8-1.33a1.2,1.2,0,0,1,.33,1.95c-2.78,3.56-.06,6.07.85,8.92,0.34,1.06.63,2.43,1.8,2,0.93-.32.84-1.57,0.91-2.53,0.21-3.06.31-6.14,0.56-9.2,0.11-1.33-.58-3.6,1-3.67s1.12,2.23,1.2,3.61c0.24,4.14.44,8.24,4,9.84,0.65-1.3,0-2.4-.09-3.55-0.14-3-1.82-5.17-2.29-8-0.18-1.07-.42-2.62.62-3.13s1.54,0.7,1.64,2c0.23,3,2,4.78,3.21,6.7,1.59,2.44,3.64,7.51,5.75,5.27,1.92-2-.72-6.28-2.27-9.09l0.07-2.4a22.9,22.9,0,0,1,5.58,11.24c2.95-4.19,1-9.46,2.34-14.07,1.14,2.43.21,4.64,0.29,6.78,0.13,3.46,1.71,5.62,3.81,6.05,2.66,0.55,1.45-3.1,2-4.85,0.27-.84-0.06-2.15,1.28-2.42,0.95,3,.25,6.69,2.16,9.33,2.1,2.91,4.6-3.26,6.5.8,2.15-2.75,1-6.62,1.65-10,2.82,1.74,1.95,5.91,3.24,8.78,0.67-2.79,2-5,1.81-7.93-0.12-2.56,0-5.14,0-7.71,1.1,4.19.49,8.55,1.47,12.65,0.9,3.77,2.46,4.11,4.45,1l0.7-2.12c0.16,2,.16,4.35,1.22,5.71s1.82,3.93,3.43,3.2,0.43-3.26.74-4.93l0.57-.88c0.46,1.24.46,3.07,2,3,0.73-1.25-.13-3.07.83-4.14l4.55,5.78c-0.25-2.41-.45-3.84-0.52-5.29-0.06-1.09-.53-2.7.73-2.92,1.07-.19,1.29,1.38,1.5,2.48,0.48,2.53.86,5.1,1.28,7.65,2.52-4.94,3.1-10.66,5.11-15.37,2.19,2.12,1.72,5.61,2.55,8.78,0.54-5.21-.6-9.94.19-14.8,1.87,1,2.1,2.9,2.12,5,0,5.26,2.43,8,5.72,9.44,2,0.9,4.6,3,6.14-.17,2.14-4.35,3.76,2.64,5.51,0,1.11-1.7,1.88-1,2.93.3,1.62,2,1.52-.83,2.11-1.7l1.48-.14c0.34,2.74,1.42,4.52,3.23,2.37s2.69-1.67,3.71.83c0.38,0.92,1.06,1.58,1.88,1s0.62-1.71.53-2.72c-0.14-1.7-.56-3.43.11-5.66,1.42,2.44,1.76,6,3.51,6.16s2.14-3.5,3.66-5.91l-0.65,11.68c3.87-4.31,6-9.7,7-15.87a2.16,2.16,0,0,1,1.38,2.29c0.21,2.89.33,5.81,0.65,8.68,0.16,1.4.85,2.68,2.08,2.26s0.68-1.91.65-3c0-1.51-.87-2.89-0.33-4.9,1.12,1.46,2.22,2.72,3.17,4.17s1.41,3.69,3.34,2.68h2c0.45,1.22.59,2.86,1.79,0.44,2-3.93.69-8.6,1.93-13.49,1.88,3.73.91,7.12,1,10.32,0,1.42-.69,3.61.67,4s1.46-1.92,1.72-3.31a43.22,43.22,0,0,0,.61-5.05c0.11-1.57.48-2.63,1.87-2.65,0.76,3.94-.47,9.11,3.35,11.35,2.81-4.08-.47-9.12,1-13.35,1.42,0.24,1.41,1.69,1.67,2.71,1.93,7.4,2,7.47,6.65,7.21a2.82,2.82,0,0,1,.63.5c2.37,1.07,2.32-.95,1.75-2.92a38.09,38.09,0,0,0-2.48-5.27c3.9,0.35,4.84,5.68,7.75,6.85l0.3-4.71c1.6,0.42,2.12,1.89,2.53,3.59,0.3,1.24.21,3.06,1.45,3.28,1.56,0.28.43-2.73,1.59-3.13,0.91,0.88,1.73,1.62,2.51,2.45,3.23,3.45,3.42,3.46,4-2.3,0.43-4,1.51-7.68,2.65-12.61,1.49,6.85-1,12.61,0,18.38,3.71-2.18,3-6.68,3.25-10.56,2.66,1.16,2.31,4.48,3.16,6.79,0.49,1.33,1.11,2.58,2.19,2.21s0.67-1.91.68-3.08c0-3.93-1.16-7.83-.34-12.42,2,4.14,2.63,8.27,3.43,12.29,0.44,2.23,1.25,4.84,2.79,4.78,1.35-.05,1.82-2.83,2-4.92a2.3,2.3,0,0,1,.14-0.48l0.05-.07c2.45,0.65,3.41,4,5.3,5.93,2.91-13.28,2.91-13.28,4.94-13.91-2.18,8.79-1.76,11.16,2.34,13.13,0.36-1.26-.45-2.35-0.38-3.4,0.12-1.81-2.67-3.31-.87-4.42,2.05-1.27,1.67,2.47,2.41,4a1.68,1.68,0,0,0,.73.42c1.51-2.15.6-5.37,1.92-9,0,9.14,5,4.45,7.17,7.26a3.07,3.07,0,0,0-.46-2.79c-0.83-1.23-1.3-3.33-.28-4,1.41-.87,1.52,1.55,1.94,2.87s0.76,2.51,1.13,3.76c0.62-.37,1.32,4.15,1.88-0.06,2.17,0.72,4.81-5.76,6.82,1.08,0.39,1.34,2.15,6.82,4.49,3.38,2-3-1.93-3.75-2.63-6l0.65-1c1,0.22,2.78,3.4,2.47-1.25a6,6,0,0,0,.49-0.6c2.25,0.25,2.6,4.65,5,4.5,0.65-1.3-1.16-2.47,0-3.69,4.2,1.35,4.19,1.31,4-4.41-0.07-2.39-.41-4.94,1-7.75,1.9,5.62.18,11.28,1.73,16.39,1.16-1.54-.32-4.08,1.26-4.75s1.6,1.67,2.34,2.68c0.5,0.68,1.28,1.47,1.88,1.39,1.12-.15.8-1.8,1.07-2.88,1-4.07,1-8.37,1.61-12.51,0.46-3.1.22-7.07,3.61-8.78-0.5,3.8-.47,7.28-1.59,10.62a27.34,27.34,0,0,0-1,11c0.19,2.24,1.51,3.58,2.78,3.33,1.8-.36,1.08-2.34.67-4-0.26-1-.58-2.33.71-3.48,1.62,3.34,1.34,8.31,4.31,10.49,1.35-1.27,0-5.26,2.76-4.9,0.6,1.71-1.15,3.4-.15,5.14,4.38-3.51.57-7.2,0.23-10.81l0.59-.71c2.76,2.77,3,8.08,5.88,10.8,0.65-1.12.67-4.23,1.46-3.39,1.09,1.15,3.41-1,3.46,2.62,0,2.06,1.29,1.34,1.86.52,1.94-2.8,5-2.05,6.85-2,4.33,0,3.1-1.23,2.13-5-1.07-4.23-4.49-6.63-4.71-12.35,4.18,4.23,5.59,10.19,8.35,16,1.18-7.51,3.72-12.13,9.41-12.72-1.8,3.74-4.72,4.87-6.48,8.09-1.57,2.89.61,3.51,0.79,5.22,0.09,0.82.56,2.18,1.52,1.66,1.38-.75.68-2.7,1-4.07a11.26,11.26,0,0,1,.64-1.47c0.85,2.88.84,6,2.71,7.8,2.61-4,1.36-11.21,6.37-13.18,0.47,5.51-4.07,8.45-3.36,13.79,1.72,0,2.17-1.92,3-3.38,2.88-5.35,3.3-5.34,6.75-1.51,1,1.1,2,2.89,3.58,2.16,1.78-.83,1.74-3.25,1.84-5.19,0.25-4.81.75-9.43,3.5-13.94l-1.48,12c1.3-.21,1-2.58,2.31-2.5,1.57,7.89,2.89,10.77,4.29,9l0.25-4.06c0.92,1,1.6,1.73,2.23,2.51s1.5,2.44,2.49,1.44,0.53-3.05,0-4.22a15.86,15.86,0,0,1-1.57-4.58c-0.17-1.07-.14-2.17.79-2.49,1.11-.38,1.18.93,1.28,1.88a15.86,15.86,0,0,0,4,8.91c0.75,0.9,1.78,1.43,2.74.51s0.61-2.18.39-3.31c-0.73-3.8-2.16-6.75-5-8.26-1.94-1-4.16-1.45-6-4,9,0.74,11.81,3.54,14.17,13.92,0.28,1.23.45,2.47,1.58,2.3,0.89-.13,1.05-1.38,1.15-2.33a16.46,16.46,0,0,0,0-3.57c-0.27-2.32-1.1-4.63,0-6.9a1.35,1.35,0,0,1,1.37.36c1.75,2,1,4.7.83,7.2-0.11,2.05-.33,4.1-0.33,6.15a11.4,11.4,0,0,0,.54,3.44c0.44,1.35,1.34,2.1,2.45,1.8,1.28-.34.9-1.83,0.8-2.91-0.56-5.75,2.19-9.29,4.2-13.22a24.64,24.64,0,0,1,5.39,13.64,2.09,2.09,0,0,0,.25,1c0.54,0.69,1.09,1.74,1.7,1.83,0.88,0.12,1-1.25,1.13-2.24q1.25-7,2.55-13.89c0.42-2.27,1-4.34,3.79-2.68-4.71,4.7-1.76,10.13-1.15,15.36,0.49,4.21,1.91,4.49,3.89,1.42,1.33-.2,1.35-2.07,2-3.07,0.62,1.9,1.47,3.4,3.36,3.43l-0.81-12.05c2.19,1.9,4.61,2.6,4.48,7.07-0.07,2.31,2.82,1.82,3,1.59,2.07-3.84,2.54,1.19,4.21,1.64v-10.22c1.37,3.17.94,6.31,3.18,6.75l0.81,2.07c0.77-.64.53-1.74,0.64-2.68l2.23,1.33v2c-0.71.13-1.16,0.57-.79,1.62a2.16,2.16,0,0,0,.76.71v-2.37a2.77,2.77,0,0,0,2.48-1.81c0.84,1,.72,3.35,2.3,3.45,2-5-1.77-7.14-2.67-10.67l0.61-.84c2.43-.46,3.93,1.23,5,4a21.36,21.36,0,0,0,1.49,3.48c1.2,2,2.72,5.31,4.5,3.47,1.23-1.26,1.38-5.29-.72-7.54a4.67,4.67,0,0,1-.54-1.32l0.36-.56c2,1.18,1.94-1.85,3.35-3.71-1.2,7.59,1.63,11.13,5.24,14,1.6,1.27,2.32.54,2.23-1.94-0.1-3.07-.19-6.15-0.29-9.22,0.9,3.33,2.93,3.2,5,3.08,0.61,3.2,2.61,3.61,4.65,4.66v-8.93c4,9.72,4,9.72,6,7.26a16.75,16.75,0,0,0,.39,2c0.36,1.13,0,3.23,1.41,3,1-.12,1-1.83,1-3,0.36-6.13,2.17-.53,3.24-0.78a2,2,0,0,0,1.94.85l0.7,2,0.3-3.12c0.2-1,.55-1.85,1.41-2,0.4,1.44.81,2.88,1.19,4.33,0.46,1.77,1.36,2.51,2.61,1.78,1-.57,2.44-0.66,2.75-2.32,0.38-2-1.17-2.26-2-3a10.28,10.28,0,0,0-1.29-1c-1.18-.73-3.25-1-2.22-3.53,0.91-2.21,1.94.45,2.93,1,1.67,0.88,3.1,2.82,4.94,2.49,0.91-1.89-1.28-2.52-.5-4.54,2.44,1.73,5.45,1.47,7.5,6v-5.54c3.51,1,2.27,7.74,5.69,9,0.75-2.77-.07-5.79,1.55-8,1.62,1.48.31,4.59,2,5.78,0.49-.89-0.14-3,1.65-2.68l0.74,7.21a17,17,0,0,0,.91-8.89c-0.26-2.19.39-2.82,1.45-1.69,1.85,2,4.56,3.37,4,7.8,0,1.07-.62,2.79.57,2.9,1,0.09,1.62-1.47,1.64-2.95,0-4.42,0-8.83,0-13.25,0.15-.4.29-0.8,0.46-1.18a0.43,0.43,0,0,1,.31.14c0.31,3.86.61,7.72,1,12.16,2.76-3.27,4.19-1.84,5,1.86a11.37,11.37,0,0,0,1,3.3c0.88,1.39,1.45,3.08,3.16.15,1.29-2.2-.09-5.42,2.07-6.61l2.72,3.1c1.9,3.15,3.4-.95,5.15-0.54,0.37,0.94.13,2.45,1.29,2.67,0.71-1.51-.36-6,2.6-3.53,1.87,1.57,3.76,3.12,5.3,1s0.1-4.93-.95-7.3c-1.72-3.91-3.25-8-5-12.25,2.08-.15,2.89,1.19,3.5,3,1.14,3.37,2.83,6.29,3.81,9.85,1.36,5,4.18,7.24,8.19,6.62,3.56-.55,2.18-5,3.35-7.46,1.55,1,1.8,3.06,2.32,4.95,0.25,0.92.43,2.11,1.4,2.07,1.31-.05,1.07-1.53,1.18-2.65,0.08-.8.12-1.61,0.19-2.57,1.58,2,.46,5.18,2.42,7.6,1.68-8.27,5.58-14.57,7-22.52,1.49,4.3.19,8.18-1.24,11.74-0.87,2.18-1.65,4.23-1.39,6.67,0.15,1.42.31,3.4,1.78,3.44s0.81-2,1.07-3,0-2.78,1.28-2.53,0.73,1.89.89,3c0.49,2,1.78,2,3,2.21,1.94-.07,3.85-0.57,5.7,1.17s1.62-.6,1.7-2.08l0.1-1.51c1.17-.19,1.45,2.2,2.63,1.91,0.57-2.43-.36-5.11.84-7.52,1.45,1.54.78,3.8,1.69,5.28s1.89,2.76,3,2.45c1.42-.4.63-2.55,0.81-3.95,0.3-2.43-1.13-5.21.68-7.65,1.15,2.11,1.12,4.41,1.6,6.47s0.57,4.44,2.63,4.85c0.47-1.43-.16-2.66-0.28-4s-0.9-2.75.35-4c1.19,2.44.36,6.62,3.11,7.55,1.32-1.28.12-3.78,1.84-4.59l1.71,4.15,0.42-3.63,2-1c0.42,2.22.15,5.29,2.6,5.36,1.81,0.05,2.29-2.13,2.68-4.23,0.21-1.16-.47-3.09,1-3.32,1.29-.19,1.52,1.61,1.9,2.76,1.49,4.54,4.56.47,6.5,2.37l-0.08-1.53,0.65-.68c2.34-1.14.65-4.74,2.24-6.8,1,2.24.36,4.41,0.36,6.48,0,3.43,2,5.37,3.72,3.1,1.14-1.53,1.59-1,2.65-.67,3.19,1.09,4.65-1.28,3.49-5.74a11.36,11.36,0,0,1-.3-6.33,1.81,1.81,0,0,1,1.43,1.64c0.73,2.63.35,5.42,0.55,8.13,0.08,1.14-.23,2.77.91,3,1.52,0.28,1.27-1.72,1.4-2.91,0.28-2.53.35-5.1,0.57-7.65,0.11-1.28.57-2.57,1.64-2,0.84,0.43.64,1.88,0.16,2.64-1.21,1.91-.94,4.2-1,6.36,0,1.22-.55,3.13.71,3.54s1.35-1.51,1.68-2.73c0.49-1.81.83-3.81,2.36-4.64,1.25,3-1.24,5.78.07,8.62,3.39-1.1,2.49-4.9,2.58-7.9,0.19-6.44.12-6.44,1.55-9.31-0.92,4.59,1,8.33,1.84,12.33,0.63,2.85,1.75,3.55,2.74.11l1-.11c0.59,1.18-.16,3.54,1.43,3.71s1.37-2.12,1.67-3.41c1-4.3,2.3-8.54,2.23-13.26,1,3.65.13,7.33,0.36,10.94,0.09,1.45-.95,4,0.9,4.16,1.64,0.16,1.33-2.5,1.65-4,0.81-3.79.23-8,1.73-12.26,1.22,2.1.89,4,1,5.77,0.26,3.58.44,7.18,0.76,10.75,0.12,1.31.4,2.91,1.69,2.92,1.46,0,1.13-1.88,1.45-3.06l1.79,0c0.3,1.07.57,2.15,0.9,3.2s0.71,1.92,1.54,1.66c1.19-.38.53-1.88,0.72-2.88,1.63-1.07,1.72,2.28,3.07,2,2.07,1.75,3.69,1.6,4.52-2l1.37,0c1.23,3.38,2.4,2.35,3.19-.29,1.14-3.77,3.39-6.73,4-10.89,0.22-1.58.8-2.91,2.4-2.56,0.61,4.51-2.46,7.66-2.45,12,0,1.85-.71,4.06,1.13,4.73,1.6,0.59,3.31.17,4.28-2a10.65,10.65,0,0,0,.62-6.92c-0.28-1.17-1.19-2.26-.49-3.72,3.78,2.13,1.94,7.41,2.94,10.63,3.92-2.94,1.66-8.24,2.62-13.19,1.94,4.92-.4,11,4.18,15,0-5.49,0-9.91,0-14.32,0-1.44.26-3.07,1.63-2.63,1.58,0.51.22,1.86,0.16,2.81-0.25,3.85-.51,7.69.75,11.32,2-2.73,1.65-6.77,3.21-9.71a74,74,0,0,1,.37,7.79c0,0.91-.32,2.35.67,2.55s1.32-1.07,1.6-2.29c0.46-2,0-4.72,2.21-5.29a2.09,2.09,0,0,0,0,.86,28,28,0,0,0,1,9.83c2.9-1.4,1.63-5.11,2.34-7.7l0,0.08c2.16,0.9,2.73,4.59,5.28,5.84-0.27-2.19-2.12-3.72-.66-5.72,2,1,1.26,4.84,3.15,5.75,0.85-.27.75-1.35,1.11-2,0.7-1.23-.18-4,1.67-3.92,1.4,0,1.25,2.24,1.76,3.5,1.47,3.69,6.31,3.4,8.32-.55,0.87,1,0,3,1.18,4,1-1.71,2.1-3.29,1.71-5.75,1.79,1.72,2.86,4.21,4.87-.87,2.7-6.84,7.09-12.37,10-19.22,0.46-1.07,1.19-2,2.09-1a2.22,2.22,0,0,1-.18,2.73c-1.67,1.65-2.35,4.33-3.55,6.42a25,25,0,0,0-2.79,17.88c1.95-3.83,1.87-7.31,2.36-10.53,0.19-1.29.6-2.47,1.66-2.19,0.88,0.24.82,1.61,0.73,2.55-0.29,2.85-.69,5.67-1.08,8.78,3.71-4.28,3.47-11.9,8-15.64-0.73,6.09-3.32,10.42-3.43,15.84l-0.12.19,0.14-.15c2.7-2.07,1.66-7.15,4-10,1,3.83.15,7.63,1.53,11.08,3.23-2.28,2.25-6.73,2.91-10.3,2.08,1.64,2,4.42,2.19,7.14,0.07,1-.15,2.73,1.1,2.68a2.21,2.21,0,0,0,1.87-2.15c0.25-1.67.37-3.38,0.72-5,0.4-1.82.09-4.33,2.14-4.79l-0.05-.11c0.85,4.2-.34,8.47.3,12.69,1.36-1.95.65-5.07,1.85-7.28,1.21,1.24,1.21,2.89,1.68,4.22s0.4,3.46,1.85,3.35c1.7-.14,1-2.36,1.15-3.67,0.32-2.22.23-4.6,1.54-7,1.33,4.47,1.28,9.2,4.12,11.93,1.32-3.06.78-6.65,1.58-10.09l6.92,6.67c0.29,0.4.57,0.37,0.83-.06l0.14-2.38H821c1.08,2.92,2,6.57,4.87,2.38,4.16,3.12,2.07-2.29,2.75-3.87a5.71,5.71,0,0,0,.12-1.51c0.08-.89.28-1.78,1-1.83s0.78,1,.9,1.81c0.36,2.33.61,4.7,1.13,7,0.24,1.06,1.62,2.07,1.77.66,0.55-5.38,2.07-1.55,3-.65,2.18,2.22,2.41.61,2.53-2,0.14-3.19-.55-6.49.61-9.55l0.38,0.52c0.91,3.44-.94,8.4,3,10.21,1.23,2.53,1.23,2.53,2.13,1.07,2.24-3.57,2.47-9.15,6-11.42l-0.06-.1c0.12,3-2.32,5.2-1.47,8.51,0.45,1.75-.86,5,1,5.13,1.64,0.12,3.13-2.39,3.56-5.09,0.27-1.66.42-3.36,0.63-5s0.63-3.33,2.66-4.25c-1,4.61-1.89,9,.48,12.88,3.22-2.9,1.4-7.81,2.77-12.84,1.2,4.68.6,8.89,2.57,11.93,0.8,1.24,1.12,3.26,2.66,3.09,1.75-.2,1.4-2.4,1.75-3.91,1.89-.78,1.11-3.6,2.05-5.1,0.32,2.18,0,4.67,1.62,6.5,1.81-3.87-.94-7.94.55-11.79,1.37,1.3.84,3,1.12,4.34s0.14,3,1.38,3.22,1.58-1.34,2.18-2.36l1.91,0.11c0.38,1.81-1,5,1.78,5s2-3.08,2.15-5.3c0.07-1.36.06-2.74,0.07-4.11,0-1.81.56-2.91,2.31-2.82,0,3.37,0,6.77,0,10.17,0,0.76-.11,1.88.8,1.88a1.45,1.45,0,0,0,1.37-1.42c0.22-1.16.43-2.33,0.74-3.44,0.62-2.27.09-7,1.41-6.56,2.56,0.86.73,4.86,0.91,7.51,0.11,1.64-.68,3.75.52,4.78,1.52,1.31,2.8-.27,3.94-1.67l2.15-.93c0.32,1.24.34,3.08,1.66,2.9s1.12-2,1.44-3.23c0.81-3.23.28-6.91,1.56-10.47,2.16,3.62.94,7.66,1.72,11.1,2.39-2.18,1.62-5.92,2.47-8.82,0.33-1.1.61-2.75,1.61-2.33,1.25,0.52.89,2.35,0.42,3.4-1.42,3.2-.83,6.45,0,10l3.18-8.15,0.51,0.56a36.19,36.19,0,0,0,.21,4.6c0.34,2-.62,5.32,2.33,5.13,2.65-.16,3.57-1.86,3.29-5.63-0.22-2.9-.41-6.24,2-9.12,0.15,4.45-.34,8.37,1.55,11.57,0.67,1.14,1.57,1.94,2.53,1.74s0.6-1.67.65-2.6c0.14-2.54,1.44-4.26,2.09-7.23,0.78,3.55.24,6.28,0.27,9,0,0.94-.28,2.18.7,2.58s1.7-.44,2-1.63c0.54-2,1-4,1.44-6.1,1.07,0.93.74,2.07,0.93,3,0.25,1.28-.53,3.63,1.19,3.45,1.41-.14,2.38-1.58,2.07-4-0.23-1.79-.81-3.63,0-5.93,2.19,5.07,3.08,2,4.09-1.39,0.27,2.62.18,4.84,0.29,7,0.14,2.89,1.56,4.87,3.38,5.46s1.78-2.27,2.42-3.8,1.23-2.83,2-4.64c0.58,3,2.66,6.46,3.35,5.74,2.85-2.94,4.55.33,6.69,1.22,1.74,0.72,1.29-1.21,1.41-2.4l0.7-1c0.35,1.2.41,2.71,1.86,3l0.59-4.44c1.18,0,1,2.41,2.28,2.19,0.71-2.27-.26-5,0.9-7.36,1,1.66.66,4,2,5,1.06,0.88,1.84,3.86,3.27,2.07s-0.66-3.14-1.36-3.87c-1.76-1.82.08-3.4,0-5-0.07-1.3,1.65-.75,2.57-0.59,2.52,0.44,4.14,2.71,5.52,5.45,0.5,1,0,3.29,1.53,2.9s1-2.48,1.12-3.9c0.24-4.27.36-8.56,0.55-12.84,0.05-1.22.15-2.51,1.42-2.34a1.46,1.46,0,0,1,.94,2.19c-3.38,8.18,0,15.93.34,24.37,2.07-1.81,2.89-3.93,3.84-6.18,2-4.81,1.92-10.12,2.59-15.26,0.17-1.29.37-3.05,1.69-2.77s0.69,1.93.79,3c0.56,6.11,1,12.27,3.78,17.3,3.18-6.84,1.56-14.72,3-21.91,2.27,1.21,2.23,3.66,2.24,6.09,0,3.77-.11,7.56.08,11.31,0.08,1.71.12,4.5,1.88,4.3s0.85-2.8.92-4.31c0.28-5.52.63-10.93,4-14.9,0.72-.85,1.56-1.7,2.26-0.75a2,2,0,0,1-.74,2.83c-2.07,1.34-1.89,3.79-1.82,6.17a54.49,54.49,0,0,0,2.87,15.38c4.51-3.51,3.11-9.46,3.49-14.59,2.8,2.13,2.5,7.46,5.42,9.49,1.53,1.07,2.8,2,3.43-1.05s1.29-3.78,2.58-.61c0.61,1.5,1.72,2.6,2.76,1.82s0.56-2.85.22-4.19c-0.71-2.87-1.65-5.63-2.5-8.44l1.88,0.13c0.48,1.58.66,3.63,1.5,4.64,1.77,2.13,1.86,8,4.3,6.73,1.6-.82.47-6-0.93-9-0.55-1.19-1-3.28.57-3.78,1.38-.44,1.34,1.46,1.46,2.81a14.7,14.7,0,0,0,5.25,10.45,1.52,1.52,0,0,0,2.42-.15c0.72-1,0-1.76-.34-2.66-1.26-3.73-1-7.66-.68-11.59,0.19-2.18,1.19-3.14,2.61-3.47,0.89,1.69.17,3.08-.09,4.54a20.09,20.09,0,0,0,.09,8.12c0.57,2.48,1.91,4.23,3.8,4s1.47-2.78,1.79-4.51c0.39-2.09-.42-4.62,1.17-6.8,1.35,3.61.27,7.17,1,10.34,3.71-.35,5.7-4.81,8.84-6.39,0.31,1.7.47,3.22,0.87,4.62s1.12,1.9,1.83.24c0.6-1.38.79-3.84,2.47-2.82,1.28,0.77,1.05,3,1,4.65-0.1,3.45.63,4,3.08,2.69,3.34-1.77,2.67-4.89,1.74-8.93,1.53,1.43,2.51,2.32,3.48,3.25s2.21,2.15,3.32,3.22c2,1.94,3.19,1.24,3.57-2.15,0.25-2.25.59-4.48,0.91-6.87,2.14,1.32.22,5.31,2.46,5.36,1.7,0,1.54-3.47,3.24-5-0.14,4.78,0,9,3.25,11.06,1.81,1.18,3.2,1,2.84-2.57-0.23-2.37-.47-4.75-0.64-7.13,0-.61-0.05-1.53.63-1.47a1.63,1.63,0,0,1,1.19.86,16.12,16.12,0,0,0,3.72,10.86c1,1.32,1.27,3.66,3.2,2.69s2.81-2.76,2.15-5.57c-0.39-1.67-1.21-3.32.53-5.18a34.76,34.76,0,0,0,5.07,14.43c2-6.05-1.5-10.52-1.4-16.3,3.79,2.66,5.57,6.25,4.27,13.42,2.33-3.69,2-6.69,2.34-9.39,2.42-1.48.53-5.19,2-7.18,0.32,6,1.94,11.11,5.33,15.06,0.75,0.87,1.62,2.52,2.46,1.6,1.21-1.31-.16-2.55-0.64-3.85-0.72-2-1.16-4.14-1.73-6.22s-3.12-4.49-1.22-6,2.77,2.84,4.09,4.56c0.66,0.85.81,2.46,1.15,3.74,0.44,1.63,1,3,2.4,3.45,0.83-4-1.36-9.42,3.32-12.59a42.25,42.25,0,0,0,.09,13.72c3.74-3.09.83-9.2,3.49-13.36a22.9,22.9,0,0,0,1.59,8.76c1.09,3.24,2.71,4.91,4.94,3,2.56-2.2-1.44-3.19-.88-5.26q0.28-.33.54-0.69c1.62-.05,2.74,5.09,4.76.84,1.19-2.51,2.4-5,3.6-7.5l0.64,0.86c-0.42,2.84-1.49,5.51-1.19,8.52,0.12,1.21.35,2.43,1.47,2.58,0.9,0.12,1.46-.64,1.62-1.69,0.36-2.35,1.19-3.34,2.89-2.25,0.51,0.33.93,0.53,1.07-.46,0.73-5.39,1.76-1.46,2.94-.31,2,2,2.44,6.52,6,6.67l-2.24-9.4c4.92,2.58,6,10.86,11.14,12.27,0.46-4.79-1.92-8.78-1.18-13.52,4.47,2,5.55,9.09,10.5,11.78-2.64-4.62,1-4.24,1.5-6.29,0.33-1.26,0-3.66,1.5-3.59s1,2.42,1.44,3.69c0.37,1,.24,2.72,1.34,2.73s1.25-1.46,1.59-2.55a27.72,27.72,0,0,0,.61,4.3c0.75,2.45,1.6,2.06,2.27-.18,0.55-4.3,1.28-8.49,3.48-12,1.6,1.92.28,3.75,0.37,5.48,0.08,1.49-.37,4.22.44,4.22,2.42,0,2.71,2.76,3.72,4.49,0.67,1.14,1.19,2.34,2.34,1.85s1-2.2,1.06-3.48c0.09-2.55,0-5.1,0-8.2,1.58,2.18,1,5.5,3.19,6.15,1.83-3.41,2.24-7.76,3.52-12.7,1,3.78,1.18,6.75,2.84,9,0.48-1.1.78-2.67,1.3-2.82,1.11-.32,1.13,1.47,1.46,2.46,0.56,1.71.87,4,2.55,3.82,1.47-.19,1-2.84,1.75-4.06a1.39,1.39,0,0,1,.71-0.3c1.36,1.85.61,4.6,1.53,6.82,3.26-1.62,1-9.16,5.36-9.52,1.11,6.81,1.79,7.33,6.55,4.78a1.13,1.13,0,0,1,1.7.29c1.13,1.89,2.29,3.34,4.06,1.42s1.36-4,.51-6.29c-0.3-.81-1-2,0.08-2.57,0.72-.42,1.42.18,1.92,1.09,1.12,2,2.7,3.78,3.31,6,1.18,4.44,3.57-1.48,4.93,1.34,0.11,0.23.07-2.42,0.7-3.55,0.88,0.85,1.79,1.68,2.65,2.57s1.34,2.44,2.48,1.5c0.82-.68.52-2.17,0.53-3.33,0-3.26-.11-6.53.05-9.77,0.18-3.55.71-7,3.63-8.77a16.32,16.32,0,0,1-1.1,8.15,26.7,26.7,0,0,0-1.41,12.84c0.19,1.52-.19,3.87,1.31,4.39s2-1.78,3-2.66c2.22-1.91-1.65-2.81-.52-5.13,4.07,1.76,6.63,6.19,9.45,10.73,1-2.27.76-4.4,1.09-6.31l0.86-.12c0.34,2.06,1.34,3.65,2.78,3.26,2-.53,1.81-3.13,2-5.37s-0.18-5.87,1.89-5.83c1.73,0,.39,3.42.83,5.21,0.08,0.32,0,.69.08,1,0.23,1.44.2,3.38,1.73,3.25s1.07-1.94,1.19-3.23c0.34-3.63.33-7.53,3.56-9.18,0.79,4.49-3.51,9.3.78,13.26l2.34-6.81c0.95,5.32,3.94,7.3,6.52,9.82,0.5,0.49,1.06,1.17,1.58.22s0-1.5-.39-2.23a17.62,17.62,0,0,1-2.16-9.31c2.24,2,3.16,4.72,4,7.59,0.33,1.17.91,2.23,1.93,1.87s0.53-1.69.55-2.58c0.06-2.76,0-5.53,0-8.6,3,1.55,2,4.79,2.81,6.94,0.42,1.16.38,3,1.78,2.63,1.16-.34.61-2,0.78-3l0.69-1a10.81,10.81,0,0,0,2.29,3.91c0.72,0.86,1.18,2.57,2.36,1.91s0.91-2.34,1-3.61c0.24-2.54.25-5.12,0.37-7.68,0-1,0-2.24,1-2.28s1.11,1.09,1.16,2.15c0.13,2.72-.16,5.5.54,8.15,0.27,1,.7,1.89,1.54,2,0.57,0,.76-0.63.92-1.33,0.56-2.48-.88-6.62,1.3-7.25,1.88-.54,2.16,4.09,3.67,5.82a5.25,5.25,0,0,1,.9.87c1.65,3.12,3.48.49,5.05,0s0.66-2.82.66-4.4c0-1.22,0-2.44,0-4.35l3.13,4.56c0.48-1-.46-2.81.62-3.16,0.68-.22,1.54.85,1.9,2.06a24,24,0,0,0,1.53,4.65c0.88,1.55,2.12,3.44,3.27.14h0.89c0.51,1.13.49,2.7,1.45,3.41,3-2.91.48-7.92,2.42-11.5-0.42,4.61,1,7.82,3.72,9.85,0.81,0.6,1.93,1.49,2.78.5,1-1.15.21-2.6-.29-3.7-0.85-1.84-2-3.46-2.78-5.32-0.4-.91-1.19-2.31-0.28-3.19s1.94-.16,2.54,1.12c1.28,2.69,2.51,5.42,3.74,8.16,0.55,1.23,1.23,2.48,2.32,1.92s0.46-2.08.52-3.2c0.17-3.35-1.1-6.69-.17-10.12a97.8,97.8,0,0,1,3,10.92c0.23,1,.48,2.28,1.36,2s0.65-1.75.29-2.52c-0.89-1.88-.77-4-0.79-6,0-1.08-.45-2.61.72-3.08s1.52,0.81,1.93,1.89c1.09,2.84,2.4,5.53,2.64,8.88,0.1,1.41,0,3.64,1.42,3.67,1.71,0,2.1-2.28,2.2-4.1a23.14,23.14,0,0,1,2.27-9,21.26,21.26,0,0,1,.32,5.14c-0.13,2.49.54,4.07,2.19,5.35,4.16,3.24,7.31.9,9.35-7.24l0.59-.66c0.4,2,1.82,3.13,2,5.38,0.13,1.9,1.18,3,2.66,2.77,1.79-.28,1.68-2.05,1.49-3.85a10.21,10.21,0,0,1,.73-6c2.81,2.93.67,9.2,4.46,11.15a36.55,36.55,0,0,0,.89-8.29c0-1.28.27-2.49,1.32-2.71,1.56-.34,1,1.52,1.08,2.41a24.29,24.29,0,0,0,3.41,9.81c0.84-2.38-.38-4.77.89-7,1.37,0.92,1.81,3.22,3.23,4s3.1,3.56,4.63,1.54c1.19-1.58-.81-3.55-1.15-5.46l0.59-.81,3.72,4.86c0.64-1.21,1.19-3.43,2.11-3.76,1.81-.66.68-4.7,2.59-4.09,1.76,0.56.26,3.77,1.4,5.12,1.29,1.53,1.61,5.38,3.44,4.81,2.12-.66,1.16-3.95,1.1-6.24a2.34,2.34,0,0,1,.26-0.75c2.63,1.7,3.73,6.12,6.77,7.35,0.49-4.54-3.09-5.76-3.54-9.3a4.93,4.93,0,0,0,.48-0.59c2.12,0.05,5.08,5.85,5.86-2.76,1,3.12,2.23,4.85,2.58,7.3,0.16,1.12,0,3,1.28,3.19s1.95-1.28,2.71-2.41c1.33-1.95.11-3.86,0-5.78-0.08-1.1-.93-2.52.21-3.12s1.77,0.85,2.08,2.2c0.79,3.48,1.36,7.1,3.61,10,1-3.74-.81-8.34,2.48-11.2,0.28,2.61.67,4.93,0.75,7.27,0.14,3.74.93,3.06,2.92,1.67,3.6-2.51,1.95-7,2.53-10.81,1.43,1,1.93,2.4,2.45,4,0.77,2.32,1.19,6.72,3.22,5.69,1.84-.93,1.17-5.11.39-7.94-0.18-.64-0.31-1.3-0.46-2l0.37-.52c6.93,0.44,3.13,9,5,13.4,2.24-1.66,2.4-4,2.18-6.73-0.33-4.24,1-7.23,3.85-9,0.82-.52,1.74-1.4,2.31-0.16s-0.37,2-1.09,2.74c-3,3.2-3.36,7-1.45,11.51,0.8,1.86,1.75,2.78,2.92,1.21,1.93-2.6,4-5.24,3.8-9.54,0-1-1-2.52.3-3.08s1.76,0.83,2.26,2.1c1.15,3,2.35,5.95,3.49,8.95,0.44,1.17,1,2.09,2,1.71s0.72-1.64.72-2.59c0-2.23-.15-4.46-0.15-6.69,0-.92-0.26-2.21.76-2.51,1.21-.35,1.39.95,1.66,2.12,0.71,3.06.59,6.51,2.11,9.17,0.5,0.88.81,2.74,1.72,2.35a3.85,3.85,0,0,0,2-2.84,51.77,51.77,0,0,0,.85-8.65c0-.91-0.33-2.33.73-2.46,0.85-.1,1.07,1.08,1.42,2,0.91,2.55.81,5.73,2.71,7.7,0.79,0.82,1.35,2.22,2.49,1.69s0.89-2.17.91-3.49c0-1.52.09-3,.14-4.56,1,3,1.42,6,3.11,8.29,0.85,1.15,1.81,2.42,2.89,1.64,1.41-1,.27-2.67,0-4a5,5,0,0,0-.74-1.77c-1.28-1.72-1.77-3.91,0-4.93,2.06-1.18,1.1,2.07,1.64,3.18,1.64,3.37,4,6.57,6.6,6.5,2.93-.07,2.51-4.71,2.72-7.84,0.12-1.85.43-3.37,2.19-3.92,0.17,3.42.34,6.85,2.44,9.29,0.79,0.92,1.1,3.18,2.52,2.16,1.21-.87,1.23-2.83,1.25-4.58s-1-2.46-1.6-3.84c3.22-.63,4.31,1.95,4.92,5.41,0.16,0.92.19,2.29,1.23,2.11,0.84-.15,1.11-1.25,1.22-2.3s0.12-2.05.2-3.07-0.37-2.19.76-2.4,1.68,0.59,1.95,1.87c0.45,2.15.82,4.34,1.47,7.83,2.5-13,2.53-13.06,4.61-13.28a12.72,12.72,0,0,0-1.61,11.09,1.71,1.71,0,0,0,2.94.79c1.82-1.47,4.43-2,3.92-6.25l0.11-.17a5.76,5.76,0,0,1,3.93,3.4c0.5,1.07.58,3.1,1.87,2.71,1.5-.44,1.17-2.66,1.52-4.18,0.51-2.19-.73-5.41,2.08-6.37,0.48,3.43.3,8.66,3.4,8.46s1.83-5.42,2.34-8.62c2,0.77,2.92,2.34,2.74,5.19-0.07,1.23-.52,3.2.81,3.41,1.07,0.17,2.05-1.07,2.31-2.78,0.35-2.36.65-4.73,1-7,1.9,1.39,1.65,3.69,1.83,5.89,0.14,1.74-.59,4.7,1,4.92s2.57-2.24,2.88-4.63c0.09-.74-0.22-1.69.64-2.27,0.07,1.27.2,2.46,0.19,3.64,0,1.62.48,2.91,1.64,2.77a2.87,2.87,0,0,0,2.67-2.89c0.1-1.16-.23-2.39-0.15-3.56,0.17-2.58.61-5,3.83-4.83-5,5.37-1.39,9,.72,14.3,0.1-2.88.07-4.52,0.23-6.12,0.13-1.21-.36-3,1.1-3.31,1.23-.24,1.22,1.46,1.53,2.43,0.72,2.19,1.56,4.13,3.38,4.82l2-1c1,3.34,2.85,1.56,4.46,1.76-0.4-3.27-2-6-1.34-9.27a18.89,18.89,0,0,1,2.22,2.77c1.33,2.45,2.9,6,4.87,5.41s0.36-4.79,1.09-7.88c1.83,3.73.09,7.73,1.28,11.2,1.48-1.32,1.31-3.19,1.72-4.7,0.55-2-.37-6.17,1.65-5.69,1.61,0.38.6,4-.25,6.13-0.4,1-.35,2.16.54,2.56,1.59,0.71,1.12-1.37,1.25-2.21,0.43-2.7.66-5.47,1.13-9.61,2.17,4.83.09,9.33,1.83,12.55,3.82-3.6.6-10.64,3.93-15,0.82,7.4,1.33,11.38,7.9,15.09a37.63,37.63,0,0,0,1-11.06c3,1,1.62,7,4.73,7.05,0-1.56-.08-3.1,0-4.62,0.11-1.72.46-4.22,1.66-4.12,1.94,0.17.68,2.68,0.74,4.14a21.42,21.42,0,0,0,.72,5.52c0.51,1.68,1.47,2.07,2.37,1.09,1.29-1.4,3.13-2.38,3-5.35l0.72-1c1.64,1.51,1.82,7.66,5.4,3.23,0.12-.15.94,0.89,1.47,1.26,3.5,2.44,6.86-.35,7.09-5.69,0.1-2.51-.37-5.32,1.53-8-0.19,3.37-.47,6.05-0.46,8.72,0,2-.64,5.3,1.77,5.13,2-.14,4.17-1.67,3.44-5.7h0.35l0.35,0c0.45,2.08,1.89,3.07,2.74,4.72,1.62,3.16,2.73,2,3.71-.82,1-3,.18-5.92-0.34-9.27,3.91,1.08,3.45,7.08,6.42,8.95,0.08-4.15,1.26-7.84,2.27-11.76,0.4,5.27,0,10.9,3.77,14.34,2.55-3.46.9-8.33,2.23-13.66,1.21,5.63,2.13,10,3.09,14.3,0.7,3.16,1.91,3.48,3.34.84a20.48,20.48,0,0,0,2.63-7.51l3.09,6.51c1.36-3.27,2.48-6.07,2.75-9.39,0.45,2.58.76,5.11,1,7.64,0.12,1.14.46,1.9,1.33,2.14s1.13-.92,1.6-1.63c2-3,1.54-6.85,1.86-10.83,1.45,1.81,1.17,3.8,1.22,5.6,0.05,2.05,0,4.11-.05,6.17a2.61,2.61,0,0,0,1.86,2.74,1.6,1.6,0,0,0,2.37-.68c0.51-1.1-.17-2.14-0.52-3.26-1-3.2-1.53-6.55.28-10.24-0.1,7.12,3,10.24,7.13,12.22a1.13,1.13,0,0,0,.14-0.91c-0.13-2.35-.66-4.67-0.22-7.05l0.83-.12c0.05,2.9,1.43,4.92,2.55,8.52,0.35-4.39-1-7.56.31-10.94,2.89,4.95,1.64,10.82,2.79,15.89,2.13-1.88,2.4-2.31,1.29-4.89a15,15,0,0,1-.87-6.4c0-1,0-2.22,1.14-2.07a1.53,1.53,0,0,1,1,1.86c-0.64,5.84,2.71,7.82,5.3,10.53l0.15-.07-0.21,0c0.48-1.57-.24-2.37-0.89-3.5a9.42,9.42,0,0,1-1.3-6.22c0.13-.87.43-1.59,1.19-1.67s1.23,0.55,1.06,1.5c-1,5.26,2.13,6.75,4.3,9.62,1.23-4.67-.85-8.64-0.44-13.2a14,14,0,0,1,3,5.06c0.52,1.43,1.58,3.28,2.45,2.59,2.37-1.87,3.2.88,4.58,2.75l1.63-6.13c0.45,3.6,1.76,5.73,3.38,9-0.37-5.57-2.57-9.73-1.09-15,1.17,3.59.19,8.37,3.81,9.24,0.56-1.66-.74-2.82-0.62-4.36l0.43-.48c0.69,2.64,3.39-.42,3.52,1.77,0.32,5.27,2.22,4.73,4.65,3.09,0.92,1.21,0,4.23,1.71,4s0.87-2.73,1-4.25c0.29-3-.14-6.14,1-9.23,1.38,4.69,2.37,9.55,6.21,11.65,0.85-4.2-.79-8.48,1.17-12.08,0.91,4.21.35,9.1,4.12,11.08,1.15-2.91-.44-5.45-0.31-8.16,2.89,1.29,2.88,5,3.78,9.16l0.68-3.53,2-1c0.3,1.59.19,3.73,1.74,4,1.73,0.33,1.67-2,2.13-3.43,0.61-2,1.28-3.9,2.27-6.88,0,2.71-.08,4.24,0,5.76,0.12,1.81-.27,4.18,1.14,5.07s2.11-1.12,2.93-2.38,1.61-1.39,2,.65c0.22,1.05.3,2.8,1.48,2.3,1-.41.49-2.06,0.63-3.17l0-1.18c1.7-.62,1,3.07,2.51,2.73,1-1.25.36-3.7,1.94-4.69,0.06,0.82.06,1.5,0.16,2.15,0.22,1.33-.62,3.64,1.06,3.69s1.57-2.27,1.62-3.91c0.05-2.05-.53-4.28,1.14-6.08,0.56,2.61,1,4.88,1.52,7.13,0.61,2.78,2.61,2.31,4,2.92,1.18,0.51,1.39-1.52,1.75-2.73s0.3-2.79,1.3-2.79c1.68,0,.4,2.64,1.29,3.47,1.57-2.53,4.5-3,4.95-7.13,1.23,1.61.9,3.12,1.18,4.39s-0.08,2.76.73,3.86c0.6-.91.22-2,0.31-2.94,0.12-1.27-.52-3.17.6-3.66,1.32-.58,1.36,1.45,1.71,2.63,0.25,0.85.64,1.67,1.35,1.25,1-.6.23-2.24,0.79-3.17l0,0c0.76,0.18,1.46.57,1.42-1.31,0-1.53-.44-4.17,1.33-4s0.89,2.73.93,4.18c0.18,7,.77,8.37,5.15,10.75-0.45-2.13-2.38-2.9-2.33-5.28,2.57-.6,4.25,2.94,6.69,2.42,0.56-1.76-.53-3-0.62-4.48s0-3,1.22-3.24c1.39-.32,1,1.37,1.15,2.44,0.69,3.83,3.2,5.91,6.56,5.61,0.42-3.24-3.12-3.83-2.65-7.35,3,0.19,3.81,4.66,6.41,5.6-0.15-1.27-.37-2.43-0.42-3.59-0.05-1.35-.18-3.13,1-3.49,1.5-.45,1.34,1.59,1.49,2.79,0.31,2.4,1.13,4.12,2.85,4.9,0.55,1,1.16,1.7,2.32.85l-1.7-1.79c-0.56-2.67-3.12-4.13-2.36-7.65,0.25-1.16.64-1.82,1.44-2s1,0.88,1.14,1.59c0.35,2.67,2,4.3,2.79,6.58,0.55,1.52,1,4.63,3.3,1.35,1.17-1.65,2.78,3.21,4.85,2.09,1-.54.54-2.12,0.86-3.16,0.64-2.14-.32-5.23,2-6.64,0.69,9.15.73,9.26,3.66,10.24,0.7-2.53-.78-5.08-0.16-7.7,0.9,0.39.85,1.63,1.27,2,1.68,1.48.76,6.38,3.27,5.84,2.08-.45,2.48-4.22,3.43-6.71a1.87,1.87,0,0,1,.64-0.45,10.22,10.22,0,0,0,2.48,7.26c0.73,0.93,1.45,2.33,2.49,1.25s0.52-2.61.21-3.86c-0.62-2.48-2.52-4.3-2-7.36,2.47-.86,2.06,8.24,5.63,2.68,0.39,2,.63,3.72,1,5.33,0.31,1.24,1.45,2.31,1.92,1.29,1.37-2.92,1.87-.77,2.57.51,0.79,1.46,1.76,3,3,1.51s0.26-3.57-.53-4.57c-1.63-2.07-2.1-4.86-3.22-7.25,3.46,2.15,5.06,6.71,7.41,10.25,0.48,0.72.67,2.06,1.6,1.79s0.73-1.63,1-2.51c0.59-1.87.44-4.32,2-5.41,1.47,1.45-.3,3.42.67,4.74,3.61-1.52.36-6.18,2.57-9.51,0.87,6.92,3.49,12.24,3.46,18.7,0,10.13-.15,20.27.05,30.39,0.08,4.12-.89,5.68-3.8,5.1a11.67,11.67,0,0,0-2.24,0H4.86C3.24,1136.26,1.62,1136.16,0,1136.1ZM291.17,1094l0.14,0-0.17-.1c0-1.73-.37-2.92-1.83-2.72C289.3,1092.94,290.62,1093,291.17,1094Zm114.36-.94c0.58,1.18-.55,4.23,1.09,4,2.07-.31,1.3-3.57,1.36-5.61,0-1.48.48-4.35-1.24-3.93S405.9,1090.91,405.53,1093Z" transform="translate(0 -1048.34)"/></svg>