<svg id="Layer_1" data-name="Layer 1" xmlns="http://www.w3.org/2000/svg" viewBox="0 0 501.23 673.8"><defs><style>.cls-1{fill:#201315;}</style></defs><title>memory-tree</title><path d="M1528.16,249.78c-3.18,14.21-10.78,23.71-18.26,33.43s-14.72,19.9-21.52,30.23c-2.91,4.41-.82,7.17,4.74,7.1,3.35,0,6.68-.73,12.2-1.38l-10.65,13.56c-6-2.81-12.44-5.08-18.07-8.6-9.61-6-18.71-3.73-27.58.79-8.39,4.28-16.33,9.43-24.49,14.15-1.32.77-2.78,1.3-5.37,2.49,7.78-9.31,14.36-17.93,21.85-25.68,2.25-2.32,7-2.6,10.65-3.09s7.56-.11,10.5-0.11c0.72-3,.62-5.43,1.8-6.56a5.49,5.49,0,0,1,5.23-.52c4.23,2.71,6.71.66,9.12-2.44a5,5,0,0,0,.78-1.11c7.3-18.29,21.84-30,37.13-41.06C1520.1,258.17,1523.3,254.39,1528.16,249.78Z" transform="translate(-1419.16 -249.78)"/><path d="M1699.07,290.21c-3,3.85-6.1,7.66-9,11.58-2.41,3.22-5.12,6.35-6.82,9.94-3.9,8.22-3.17,9.29,7.75,11.41l-8.14,10.51c-5.91-8.76-7.7-9.26-15.14-3.49-7.61,5.9-14.83,12.32-22.57,18.17,5.3-11.35,7.18-25.55,24-26.53l-1.27-8.18,6.44,1.78C1674.35,299.59,1685.62,294,1699.07,290.21Z" transform="translate(-1419.16 -249.78)"/><path d="M1614.84,301.75c-2.57,11.48-8.71,19.16-14.75,27s-11.89,16.08-17.38,24.42c-2.35,3.57-.67,5.79,3.83,5.74,2.7,0,5.4-.59,9.86-1.11l-8.6,11c-4.87-2.27-10-4.11-14.6-6.95-7.76-4.84-15.12-3-22.28.64-6.77,3.46-13.19,7.62-19.78,11.43-1.07.62-2.24,1.05-4.34,2,6.29-7.52,11.6-14.49,17.65-20.75,1.81-1.88,5.63-2.1,8.6-2.5a60.3,60.3,0,0,1,8.48-.09c0.58-2.4.5-4.38,1.45-5.3a4.43,4.43,0,0,1,4.23-.42c3.42,2.19,5.42.54,7.37-2a4,4,0,0,0,.63-0.9c5.89-14.77,17.64-24.2,30-33.17C1608.33,308.53,1610.92,305.48,1614.84,301.75Z" transform="translate(-1419.16 -249.78)"/><path d="M1752.91,334.42c-2.44,3.11-4.93,6.19-7.29,9.36-1.94,2.6-4.14,5.13-5.51,8-3.15,6.64-2.56,7.5,6.26,9.22l-6.57,8.49c-4.78-7.07-6.22-7.48-12.23-2.82s-12,9.95-18.23,14.68c4.28-9.17,5.8-20.64,19.4-21.43l-1-6.6,5.2,1.44C1732.94,342,1742,337.48,1752.91,334.42Z" transform="translate(-1419.16 -249.78)"/><path class="cls-1" d="M1920.14,745.32c-0.08-1.42-.14-2.84-0.18-4.26a61.84,61.84,0,0,1-11.13-3.94c-8.82-4.21-17.58-8.38-25.32-14.4-12.33-9.59-21.62-21.47-27.11-36.19-2.15-5.77,1-14.94,6-18.15,2.55-1.61,4.7-.89,6.63.86,1.74,1.58,3.23,3.44,5.11,5.48,2.27-5.57-.82-9.49-2.28-13.71-1.68-.92-1.62-2.43-1.28-4,2.08-9.6,1.19-19.06-1.18-28.48-0.47-1.87-.82-3.91,1-5.46l-1.29-1.5c-5.9,9.77-8.71,20.56-10.58,31.68-0.41,2.46.2,5.52-3.94,6.54,0.54-14.57,3.9-27.92,12.26-39.79l-2.37-.71a82.59,82.59,0,0,0-12.05,39.62c-5.76-3.53-6.38-7.89-4.74-13.39,0.84-2.81,2.7-5.6,1.7-8.83-3.24,2.85-3.46,7-3.86,10.7-0.49,4.56-2.24,4.42-5.29,2.42-1.2.11-3-.37-2.13,2,1.63,4.59,3,9.43,6.55,12.88a18.74,18.74,0,0,1,5.4,10.08c7,33.75,29,54,60,65.92,3.26,1.26,6.6,2.31,9.81,3.42,0,1.48-.83,1.56-1.71,1.56A281.31,281.31,0,0,1,1834,733.33a25,25,0,0,1-3.55-1.73c-5.82,1-11.64-1.34-17.46,0a277.39,277.39,0,0,0,91.69,19.12c2.28,0.09,4.95-.73,6.83,1.5l1.19,1.29c2.2-2.41,4.86-2.79,7.56-2.72C1920.18,748.94,1920.15,747.13,1920.14,745.32Zm-59.37-92.88a88.75,88.75,0,0,1,6.63-22.61c2.76,8.51,2,16.23,1.81,23.91-0.12,5-3.69,2.94-6.19,3.09C1859,657.06,1860.42,654.44,1860.76,652.44Z" transform="translate(-1419.16 -249.78)"/><path class="cls-1" d="M1920.35,853.83c-0.09-2.91-.36-5.8-0.46-8.71,0-1,0-2,0-2.88-22.45-4.31-45.14-7.55-67.08-14.4-54.63-17.06-105.64-42-155.07-70.43-17.28-9.94-34.17-20.5-50.9-31.33-1.68-1.08-3.48-5.13-6.43-1.44-2.8,3.51-.48,5.27,2.31,7.32,20,14.67,40.73,28.31,61.9,41.25,2.05,1.25,4,2.6,7.18,4.61-10.79,2.81-20.69,3.95-30.59,5.11-2.12.25-2.9-1.57-4.13-2.81q-16.39-16.51-32.93-32.86c-1.34-1.32-2.68-4.53-5.21-1.8s0.84,3.83,2.13,5.18c3.5,3.67,7.24,7.1,12,11.69-7.29.71-13.28,1.19-19.23,1.94-1.88.24-5.29-1.16-5.12,2.33,0.2,4.22,3.69,1.59,5.7,1.85a12.42,12.42,0,0,0,5.28-.31c15.7-5.13,25.17,3.53,33.75,15.52-9.53,1.12-18.86,2-28.28,2.19-2,0-5.94-2-5.84,2.84,0.08,3.88,2.47,4.32,5.87,4.23a561.86,561.86,0,0,0,74.7-6.73,13.65,13.65,0,0,1,9.51,1.51c41.86,23.77,85.06,44.63,130.88,59.74a9.27,9.27,0,0,1,2,1.57c-9.86,3.68-19.52,6.77-28.46,11.52-4.49,2.39-9.57,4.23-13.2,7.6-11.44,10.61-24.45,5.69-37.16,4.87-6.1-.39-8.79-2.94-10.37-9.22-5.58-22.2-17.12-41.17-33.87-56.83-1.41-1.32-3-5-5.72-1.8-2.41,2.82,1.13,3.72,2.45,5a131.14,131.14,0,0,1,18.92,23.07c2,3,1.44,4.33-2.3,4.16-8.19-.37-16.37-0.66-24.56-0.94-1.71-.06-3.81-0.48-3.91,2.23s2,2.5,3.72,2.54c8.86,0.2,17.72.57,26.58,0.4,4.23-.08,6.64,1.48,8,5.31,2.05,5.84,4.11,11.68,6.33,17.46,1.77,4.61,1.25,6.46-4.42,5.23q-23.06-5-45.52-12.13c-2.18-.69-5-4-6.89,1-1.75,4.69,1.42,5.13,4.39,6.13,26.32,8.89,53.16,15.31,81,17a21.74,21.74,0,0,1,2.93.77c-2.85,2.59-5.18,4.74-7.55,6.85a178.78,178.78,0,0,0-24.08,26.52c-1.1,1.47-3.91,3.52-.27,5.16,2.53,1.14,4.82,5.2,8.25.48a158.91,158.91,0,0,1,29.44-30.52c21.68-17.36,46.34-28.27,73.29-34.43,5.27-1.21,10,0,14.92,1.25,8.73,2.16,17.51,4.14,26.25,6.3Q1920.29,858.88,1920.35,853.83Z" transform="translate(-1419.16 -249.78)"/><path class="cls-1" d="M1920.38,852c0-2-.05-4-0.06-6q0,3.5,0,7C1920.36,852.66,1920.38,852.31,1920.38,852Z" transform="translate(-1419.16 -249.78)"/><path class="cls-1" d="M1920,647.57c0.09-4.93-.08-9.65,0-14.59-0.09-4.28.09-8.5,0-12.75-0.11-5.36.25-9.7,0-14.18-1.24,4.42-5,9-5.89,13.57a38.14,38.14,0,0,1-1.36,4.07c-3.5-3.1-6.64-5.73-9.62-8.53-37.48-35.23-76.37-68.77-118.45-98.46a14.86,14.86,0,0,1-5.81-8.51c-9.48-32-11-64-.11-96,0.42-1.23,2.6-3.45-.76-4-2.61-.45-5-0.83-6.15,3a176.19,176.19,0,0,0-6.41,31.17,224.46,224.46,0,0,0-1,30.4c-5.79-2.17-9-4.65-8.31-11.2,0.74-7.45.22-15-.12-22.56-0.09-2,.75-5.8-3-5.24-3.39.5-1.41,3.54-1.24,5.49a135.52,135.52,0,0,1,.06,23.68c-7-6.82-10.85-14.14-14.73-21.46-0.84-1.57-.73-5.22-4.25-3.31-2.85,1.55-.56,3.54.14,5.07,6.3,13.74,15.05,25.52,28.06,33.63a8.49,8.49,0,0,1,4.55,7.36c0.49,6.56,1.61,13.08,2.59,20.55L1741,486.81l-3.46-4.39c-2.61,1.63-.85,4.49-3,5.43-1.79-1.82.19-5.06-3-6.34l-1.33,4.57c-1.81-3.61-1-8-5.37-9.59l-1.25,4.64c-2.08-1.59-.22-4.26-2.63-5.7l-1.89,7.14c-0.89-4.64.71-7.88-1.65-10.47-2,1.7-.26,4.65-3.13,6.14,0.18-6.55-2.11-11.55-8.23-14.13l-32.5-18.48c-1.34-.76-3.26-2.44-4-2-7.28,4.1-13.95-3.89-21-.89,0.44,3.25,2.91,4.59,5.45,6,33.37,19.21,66.22,39.23,97.72,61.45,63.79,45,120.32,96.68,168.22,157C1920,664.89,1919.92,651.91,1920,647.57Z" transform="translate(-1419.16 -249.78)"/></svg>