<svg id="Layer_1" data-name="Layer 1" xmlns="http://www.w3.org/2000/svg" viewBox="0 0 1915.89 572.71"><defs><style>.cls-1,.cls-2{fill:#f198a9;}.cls-1{opacity:0.36;}.cls-2{opacity:0.64;}</style></defs><title>opaque-trails</title><path class="cls-1" d="M1914-421.11c-261.06,8.46-540.69,28.15-828.82,54.7C682.74-329.32,312.91-281.57.19-223.5c0.65,4.74.11,103.92-.19,147C340.2-121,756.17-156.25,1191.7-176.45c251.52-11.66,494.94-17.4,724.19-17.84C1914.92-196.22,1914.37-417,1914-421.11Z" transform="translate(0 649.23)"/><path class="cls-2" d="M1915.59-649.23c-284.43,18.76-591.25,49.39-905.9,92.13C637.68-506.57,288.5-442.57.18-376.18c0,0.52-.06,152.16,0,152.68,330.14-58.74,726.32-110.73,1158.9-148.85,261.54-23,515.65-39.17,755-48.77a17,17,0,0,1,.08-1.75C1914.44-426,1915.94-648.65,1915.59-649.23Z" transform="translate(0 649.23)"/></svg>