<svg id="Layer_1" data-name="Layer 1" xmlns="http://www.w3.org/2000/svg" viewBox="0 0 265.05 155.75"><defs><style>.cls-1{fill:#fff;}</style></defs><title>right-wreath</title><path class="cls-1" d="M-1411.83,1821.48c0.94-1,1.46-2,1.73-1.93,0.57,0.21,27.06-37.12,5,5-5,9.62-22.52,25.17-23.37,27.37,2.66-.8,5.13-1.66,7.66-2.26s5.21-1,7.82-1.4a46.24,46.24,0,0,1,8.16-.51c2.64,0.07,12.22,1.53,14.49,1.21a15.22,15.22,0,0,1-6.75,3.2c-8,1.43-15.84,3.88-24.09,3.12-2.64-.24-5.27-0.48-7.9-0.82a1.66,1.66,0,0,0-1.86.64c-2.74,3.84-5.52,7.66-8.62,11.95,14-3.08,27.26-1.29,40.29,3.29a61,61,0,0,1-12.91,2.18,65.16,65.16,0,0,1-27.05-3.43c-1-.37-1.84-0.57-2.74.5-2.47,2.94-5.09,5.76-8,9,14.22-3.16,27.69-1.57,41.45,3.15a40.77,40.77,0,0,1-9.1,1.79c-10.33,1.28-20.57.83-30.43-2.7-2.51-.9-4-0.7-5.7,1.22-2.18,2.4-4.68,4.5-7,6.95,12.94-3.06,25.54-1.49,38,2.09,1,0.28,2.08.39,2.89,1.48a82.82,82.82,0,0,1-24,1.89,60.56,60.56,0,0,1-16.88-3.75,2.8,2.8,0,0,0-3.25.54c-2.69,2.33-5.54,4.49-8.28,6.95,14.58-1.9,28,1.67,41,7.78a59.59,59.59,0,0,1-16.11.53c-8.8-.78-17.25-2.86-25-7.24a2,2,0,0,0-2.4.34c-3.24,2.22-6.52,4.4-10.19,6.87,15.17-.06,28.64,4.48,41.9,12.24a77.65,77.65,0,0,1-16.75-.91,66,66,0,0,1-26.32-9.5,1.91,1.91,0,0,0-2.22.05c-3.59,2-7.2,3.92-10.8,5.88l0,0-13.06,6c-0.23,0-.66-0.23-0.62.16s0.45,0.24.7,0c5.58,0.73,11.13,1.57,16.42,3.57a78.91,78.91,0,0,1,20,10.9,75,75,0,0,1-24.93-5.67,54.51,54.51,0,0,1-12.84-7.53,1.68,1.68,0,0,0-1.74-.48c-4,1.4-8,2.78-12.53,4.35,14.18,2.43,25.64,8.91,36.16,18.58a62.07,62.07,0,0,1-15.43-4.27c-7.83-3.15-15-7.39-20.82-13.57a1.37,1.37,0,0,0-1.52-.35c-4.58,1.2-9.16,2.38-14.51,3.77a63.23,63.23,0,0,1,18.57,8.26,72.18,72.18,0,0,1,15,13c-0.58.79-1.14,0.38-1.61,0.22-12.35-4.17-23.62-10.06-32.08-20.38a1.52,1.52,0,0,0-1.55-.88c-4.87.88-9.75,1.72-15.14,2.66,13.52,5.53,23.7,14.5,32.34,26-3.69-.58-6.51-2.41-9.39-3.91-9.79-5.12-18.41-11.7-24.88-20.83a1.73,1.73,0,0,0-1.71-1c-5.65.53-11.32,1-17,1.46l0.05,0-13.36-.17c10.69,6.54,18.71,15.38,25.13,26.22a3.65,3.65,0,0,1-2.62-.79c-10.45-6.09-19.33-13.8-25.46-24.4a2,2,0,0,0-1.85-1.21c-4.07-.17-8.13-0.46-12.36-0.51a72.15,72.15,0,0,1,23.07,25,68.74,68.74,0,0,1-22.24-17.47,81,81,0,0,1-4.83-6.9,3,3,0,0,0-2.25-1.58c-3-.33-6-0.72-9.64-1.18,10.67,7.27,17.84,16.63,23.1,27.6-0.87.54-1.21,0-1.63-.33-9.13-6.19-17-13.7-21.76-23.71-1.64-3.42-3.71-4.49-7-4.73-1.51-.11-2.93-0.93-4.73-0.59a63.57,63.57,0,0,1,11.33,13.59,70.62,70.62,0,0,1,7.41,16.21,4.71,4.71,0,0,1-1.1-.45c-9-7.9-16.38-17-20.15-28.62a2.51,2.51,0,0,0-2.11-1.95c-2.2-.42-4.39-0.89-7.22-1.47a52.47,52.47,0,0,1,11.47,26.32,48.12,48.12,0,0,1-9.29-13.21,37.73,37.73,0,0,1-3.78-11.66,2.44,2.44,0,0,0-2.42-2.42l0.72-2.31c1.2,0.37,1.49-.67,2-1.33,5.54-7.19,12.83-12.06,21-15.8a0.85,0.85,0,0,1,1.2.13,55.33,55.33,0,0,1-9.06,10.11,50.68,50.68,0,0,1-11.86,7.76c3.61,0.76,6.5,1.44,9.41,2,1,0.18,1.23-.85,1.59-1.54,4.48-8.71,11.47-15,19.65-20a2,2,0,0,1,.67,0c-4.61,8.92-10.69,16.37-19.73,22,3.76,0.69,6.87,1.26,10,1.82,1,0.19,1.08-.73,1.39-1.34,4.69-9.26,11.61-16.94,19.4-21.52-0.25,2.31-3.42,7.85-7.37,12.84a53.77,53.77,0,0,1-11.33,10.32c3.69,0.47,6.86.82,10,1.31,1.53,0.24,2-.47,2.56-1.73a84.35,84.35,0,0,1,25.89-33.31,8.38,8.38,0,0,1,1.17-.56,84.79,84.79,0,0,1-11.2,19.57,102.29,102.29,0,0,1-15.71,16.39l14.74,1c1,0.07,1.33-.48,1.59-1.4a103.49,103.49,0,0,1,13.59-29.91,71.25,71.25,0,0,1,13.34-15.49,90,90,0,0,1-10.1,24.83,118.63,118.63,0,0,1-16.23,22c4.88,0.36,9.34.24,13.8,0.2,1.35,0,1.27-1,1.48-1.8,1.34-4.8,2.65-9.6,4.42-14.25a106.8,106.8,0,0,1,21.51-35.37c0.4-.43.68-1.11,1.48-1.05,0.41,0.66,0,1.25-.17,1.83a121.83,121.83,0,0,1-25,48.39c-0.44.53-1.36,1-1,1.75,0.4,0.92,1.46.42,2.19,0.38,4.25-.24,8.49-0.61,12.74-0.85,1.46-.08,1.91-0.6,2.13-2.14,2.92-19.82,9.88-38,22.17-54a1.47,1.47,0,0,1,.85-0.58c-2.34,20.6-10.25,39-22.2,56.31,5.28-.44,10.14-1.33,15-2.17,1.27-.22.77-1.28,0.8-1.95a118.74,118.74,0,0,1,6-32.83,102.52,102.52,0,0,1,10.69-22.84c0.36-.56.53-1.39,1.6-1.56-0.77,21-7.08,40.3-17.56,58.74a105.3,105.3,0,0,0,13.69-3c3.88-1,3.81-1.07,3.46-5a122.5,122.5,0,0,1,2.59-38,123.54,123.54,0,0,1,5.16-16,5.31,5.31,0,0,1,1.18-1.86c2.83,20.23-.14,39.79-7.08,59.32a124.89,124.89,0,0,0,12.48-4.2c1.23-.47.75-1.43,0.63-2.26a122.68,122.68,0,0,1-.5-33.13,113.45,113.45,0,0,1,6.06-24.76,1.94,1.94,0,0,1,.78-1,100.37,100.37,0,0,1,1.29,30.18,132.76,132.76,0,0,1-6.48,30.19,104.61,104.61,0,0,0,12.16-5.27c0.92-.46.61-1.16,0.46-1.86a105.69,105.69,0,0,1-.87-39.51,107.63,107.63,0,0,1,3.58-15.24,3.6,3.6,0,0,1,1.17-2.12,106.23,106.23,0,0,1-2.94,58,85.21,85.21,0,0,0,10.71-5.68c0.68-.41.38-1.16,0.22-1.78-3.3-13.15-3.27-26.42-1.15-39.7a63.43,63.43,0,0,1,4.32-15.26c4.58,18.61,3.79,37.05-1.93,55.88a106.52,106.52,0,0,0,11.9-7.77c0.66-.51.23-1.17,0-1.76-5.52-15.29-5.47-30.84-2.17-46.55a24.51,24.51,0,0,1,1-4,85.11,85.11,0,0,1,5.25,25.31,76.88,76.88,0,0,1-2.75,26.15,88.72,88.72,0,0,0,10.07-8l0,0c3.45-2.37,6.33-5.41,9.41-8.22a1.51,1.51,0,0,0,.31-1.93c-5.12-13.5-5.55-27.43-3.58-41.54a58.75,58.75,0,0,1,1.56-7.35q0.64-.3,1.26-0.62c5.22,16.39,6.63,32.92,1.75,50,3.48-3,6.22-6.44,9.23-9.59,0.91-1,.14-1.84-0.14-2.68-4.56-13.77-4.25-27.65-1-41.6a3.06,3.06,0,0,1,.68-1.38c4.69,13.87,6.05,28,2.71,42.88a98.19,98.19,0,0,0,7-8.81,1.89,1.89,0,0,0,.08-1.83c-2.92-11.24-2.25-22.43.45-33.6,0.73-3,1.26-6.07,2.7-9.07,3.14,7.68,3,23-.44,40.36a66.87,66.87,0,0,0,6.62-11.1A73.58,73.58,0,0,1-1411.83,1821.48Z" transform="translate(1655.38 -1804.48)"/><path class="cls-1" d="M-1499,1914.17c0.32,1.14,1.38,1.56,2.23,2.07,11.3,6.69,23.64,9.1,37.33,8.88a41.53,41.53,0,0,0-8.56-4.74c-9.65-4.28-19.66-6.86-30.34-6a2.38,2.38,0,0,1-.7-0.17Z" transform="translate(1655.38 -1804.48)"/><path class="cls-1" d="M-1581.11,1934.16c-0.59,1.36.56,2.08,1.17,2.9,6.48,8.58,14.91,14.7,24.55,19.27,1.7,0.81,3.32,1.87,5.83,2.08-8.61-11.08-18.45-19.79-31.6-24.23Z" transform="translate(1655.38 -1804.48)"/><path class="cls-1" d="M-1464.92,1888.92c1.59-6.47,3-13,3.11-19.66a100.63,100.63,0,0,0-5.14-33c-1.31,2.11-1.34,4.28-1.73,6.31-2.74,14.5-2.7,28.89,2,43,0.39,1.17.48,2.58,1.78,3.29Z" transform="translate(1655.38 -1804.48)"/></svg>