<svg id="Layer_1" data-name="Layer 1" xmlns="http://www.w3.org/2000/svg" viewBox="0 0 234.78 136.63"><defs><style>.cls-1{fill:#382713;}</style></defs><title>small-tree</title><ellipse class="cls-1" cx="54.64" cy="15.71" rx="54.64" ry="6.44"/><path class="cls-1" d="M-1162.54,974.64c0.43-3.11,18.54-3.89,40.45-1.74s39.31,6.41,38.88,9.52-18.54,3.89-40.45,1.74S-1163,977.75-1162.54,974.64Z" transform="translate(1192.2 -946.5)"/><path class="cls-1" d="M-1003.55,953.22c-0.08,4.53-29.81,8.93-66.41,9.84s-66.2-2-66.12-6.56,29.81-8.93,66.41-9.84S-1003.47,948.69-1003.55,953.22Z" transform="translate(1192.2 -946.5)"/><ellipse class="cls-1" cx="128.78" cy="26.24" rx="59.46" ry="5.73"/><ellipse class="cls-1" cx="86.4" cy="21.95" rx="19.6" ry="7.66"/><ellipse class="cls-1" cx="183.61" cy="19.18" rx="51.17" ry="6.71"/><path class="cls-1" d="M-1086.16,987.15c-0.84-4.35,15.14-10.14,35.7-12.94s37.9-1.55,38.74,2.8-15.14,10.14-35.7,12.94S-1085.32,991.5-1086.16,987.15Z" transform="translate(1192.2 -946.5)"/><path class="cls-1" d="M-964.13,982.12c-0.36,3.91-15.37,6.11-33.52,4.92s-32.56-5.33-32.2-9.24,15.37-6.11,33.52-4.92S-963.76,978.21-964.13,982.12Z" transform="translate(1192.2 -946.5)"/><path class="cls-1" d="M-1075.81,1080.66l2.67-12.73,3.27-8.43v-27.92l-3-7.81-3-9.39,2.67-10.54s3.86-8.78,3.27-8.43,7-7.73,7-7.73l14-5.36-13.36,21.51-0.59,15.8,7.42,20.72v27.92l6.53,14.49-26.87.35v-2.46Z" transform="translate(1192.2 -946.5)"/><ellipse class="cls-1" cx="81.06" cy="46.3" rx="25.01" ry="5.67"/><path class="cls-1" d="M-1063.2,1012.25c6.78-4.37,12.94-7,21.17-6.42,3.32,0.23,6.72.95,10,.25s5.52-2.58,8.07-4.5c6.43-4.83,13.63-2.78,20.94-4.84,3.71-1,5.83-2.7,8.87-4.94s6.33-4,9.35-6.26c0.71-.53,0-3.46-0.87-2.9-6.79,4.24-13.52,7.63-21.53,9-3.29.58-6.61,0.21-9.9,0.61a16.83,16.83,0,0,0-8.52,3.8c-3.09,2.32-5.85,4.23-9.89,4.4-3.63.16-7.22-.67-10.85-0.59-6.57.13-14,2.57-18.24,7.82-0.73.91-.18,5.53,1.37,4.53h0Z" transform="translate(1192.2 -946.5)"/><path class="cls-1" d="M-999.22,981.83c-3.44,3.52-7.46,7.14-9.55,11.67-0.1.22,0.06,1.53,0.45,1.2a25.55,25.55,0,0,0,4.14-5.13c1.63-2.38,3.39-4.66,5.22-6.89,0.16-.2-0.06-1.05-0.26-0.85h0Z" transform="translate(1192.2 -946.5)"/><path class="cls-1" d="M-1051.08,1003.21c1.8,0.05,2.36-.73,3.85-1.35,1.25-.52,1.9-0.55,2.91-1.68,1.76-2,2.69-5.22,3.61-7.65,0.08-.21-0.11-1.26-0.38-0.86a30.71,30.71,0,0,1-4.35,4.76c-0.82.8-1.54,2.13-2.4,2.82s-2.62,1.05-3.67,1.5c-0.71.3-.36,2.42,0.43,2.45h0Z" transform="translate(1192.2 -946.5)"/><path class="cls-1" d="M-1002.71,971.82c-3.66,2.89-6.51,6.71-10,9.76-3,2.59-6.29,4.78-9.52,7.07a87.86,87.86,0,0,1-10.35,6.22c-3.48,1.82-11.59,7.42-15.81,5.57-2.53-1.11-.38,7.23,1,5.41,2.5-3.4,8.8-4.93,12.49-7,4.5-2.52,8.89-5.28,13.32-7.9,7.34-4.33,14.74-10.45,19.53-17.54,0.21-.32-0.1-2-0.59-1.59h0Z" transform="translate(1192.2 -946.5)"/><path class="cls-1" d="M-1110.13,997.34c4.16,1.93,7.46,2.8,11.2,5.73,2.5,2,4.73,4.27,7.39,6,6.57,4.33,14.16,4.42,18.86,11.55,1.72,2.61,1.93-3.07,1-4.42a21.78,21.78,0,0,0-6.67-6.69c-3.57-2.26-7.76-2.89-11.47-4.83-5.58-2.91-13.63-11-20.48-8.53-0.36.13-.14,1,0.14,1.17h0Z" transform="translate(1192.2 -946.5)"/><path class="cls-1" d="M-1120.87,982.39c6.46,0.7,12.79-.27,18.58,3.39,4.41,2.79,6.83,7.72,10.75,11.11a59.45,59.45,0,0,0,5.48,4c3.34,2.29,4.49,4.62,6,8.21,1.72,4.07,4.2,7.57,8.85,8.24,2,0.29,1.34-5.51-.33-5.75-7-1-6.74-8.56-10.64-13-3.38-3.85-8.76-4.33-12.18-8.18-3.2-3.61-5.77-8-10.7-9.45a29.1,29.1,0,0,0-16,.45c-0.31.1-.13,1,0.18,1h0Z" transform="translate(1192.2 -946.5)"/><path class="cls-1" d="M-1069,1006c-0.46-3,.9-5.65-1.12-8.39-1.24-1.67-3.31-2.44-5-3.51-3.3-2.05-4.44-4-6.39-7.24-2.33-3.86-5.85-4.35-9.9-5.74-5.77-2-10.39-5.19-15.59-8.22-1.51-.88-0.75,4.3,0,5a38.73,38.73,0,0,0,11.11,7,63.76,63.76,0,0,0,7.33,2.7c3.35,1,4.85,2.54,6.82,5.5a20.74,20.74,0,0,0,7,6.56c1.63,1,3.57,1.72,4.23,3.57,0.51,1.42.13,2,.87,3.37,0.52,1,.83,0,0.73-0.66h0Z" transform="translate(1192.2 -946.5)"/><path class="cls-1" d="M-1069.73,1008.27a11.57,11.57,0,0,0-2.66-3.52,17.07,17.07,0,0,1-4.53-10c-0.42-4.2.94-8.4-.58-12.48-1.15-3.09-3.65-5-6.36-6.69-5.21-3.28-9-6.33-12.06-11.76-1.48-2.58-1.65,2.66-1.26,3.62a25.12,25.12,0,0,0,9,11c1.82,1.28,3.8,2.28,5.62,3.55,3.41,2.38,2.88,4.66,2.83,8.37-0.11,8,2.59,15.42,9.74,19.66,0.64,0.38.33-1.56,0.25-1.74h0Z" transform="translate(1192.2 -946.5)"/><path class="cls-1" d="M-1064.67,1005.56c3-1.8,6.2-2.16,9.25-3.77,3.56-1.89,4.09-5.21,6.75-8,2.35-2.42,5.68-3.56,8-6a16.2,16.2,0,0,0,4-7.91c0.15-.68-0.84-4.51-1.59-3-3,6.35-9.69,7.78-13.5,13.21-1,1.48-1.62,3.28-2.91,4.59s-3.21,1.64-4.79,2.58a14.83,14.83,0,0,0-5.66,7c-0.1.24,0,1.5,0.45,1.23h0Z" transform="translate(1192.2 -946.5)"/><path class="cls-1" d="M-1092.41,961a45.48,45.48,0,0,1,9.89,6c2.57,2.11,4.18,5,6.52,7.25,1.19,1.16.91-2.39,0.67-2.85-3.09-6.09-10.85-9.83-17.14-11.47-0.37-.1-0.21.94,0.06,1.07h0Z" transform="translate(1192.2 -946.5)"/><path class="cls-1" d="M-961.82,965.23c-2.26.29-2.54,3.25-4.25,4.57-2.45,1.89-6.17,2.28-9.08,2.88-7.08,1.47-14,4-19.5,8.8-0.41.35-.05,2.2,0.56,1.85A76.56,76.56,0,0,1-972,974.83c2.29-.52,4.8-1.18,6.63-2.76s2.59-3.92,3.86-5.86c0.12-.19,0-1-0.29-1h0Z" transform="translate(1192.2 -946.5)"/><path class="cls-1" d="M-1152.87,967c2,1.78,3.65,1.37,6,2.29,2.84,1.12,4.35,4.32,7.12,5.73,4.58,2.33,10.78,2.95,15.76,4.19,1.47,0.37.52-3.21,0-3.7-4-3.91-9.9-3.08-14.87-4.7-2.6-.85-4.06-2.94-6.43-3.93s-5.18.07-7.6-.71c-0.31-.1-0.12.72,0,0.83h0Z" transform="translate(1192.2 -946.5)"/></svg>