<svg id="Layer_1" data-name="Layer 1" xmlns="http://www.w3.org/2000/svg" viewBox="0 0 716.31 620.1"><defs><style>.cls-1{fill:none;}.cls-2{fill:#f8db94;}</style></defs><title>star-swirl</title><rect class="cls-1" x="417.6" y="173.11" width="13.58" height="13.58"/><circle class="cls-2" cx="424.39" cy="179.9" r="6.79"/><rect class="cls-1" x="299.25" y="196.4" width="12.86" height="12.86"/><circle class="cls-2" cx="305.68" cy="202.83" r="6.43"/><rect class="cls-1" x="303.41" y="373.08" width="14.5" height="14.5"/><circle class="cls-2" cx="310.66" cy="380.33" r="7.25"/><rect class="cls-1" x="432.12" y="382.34" width="8.73" height="8.73"/><circle class="cls-2" cx="436.48" cy="386.71" r="4.36"/><rect class="cls-1" x="528.31" y="342.66" width="16.87" height="16.87"/><circle class="cls-2" cx="536.74" cy="351.09" r="8.43"/><rect class="cls-1" x="585.72" y="225.62" width="15.28" height="15.28"/><circle class="cls-2" cx="593.36" cy="233.26" r="7.64"/><rect class="cls-1" x="531.42" y="90.62" width="12.94" height="12.94"/><circle class="cls-2" cx="537.89" cy="97.09" r="6.47"/><rect class="cls-1" x="426.98" y="56.84" width="12.21" height="12.21"/><circle class="cls-2" cx="433.09" cy="62.95" r="6.11"/><rect class="cls-1" x="316.38" y="63.33" width="17.63" height="17.63"/><circle class="cls-2" cx="325.2" cy="72.15" r="8.82"/><rect class="cls-1" x="229.5" y="120.61" width="10.32" height="10.32"/><circle class="cls-2" cx="234.66" cy="125.77" r="5.16"/><rect class="cls-1" x="150.85" y="199.26" width="17.86" height="17.86"/><circle class="cls-2" cx="159.78" cy="208.19" r="8.93"/><rect class="cls-1" x="167.34" y="318.3" width="7.07" height="7.07"/><circle class="cls-2" cx="170.87" cy="321.84" r="3.53"/><rect class="cls-1" x="208.97" y="423.56" width="11.82" height="11.82"/><circle class="cls-2" cx="214.88" cy="429.47" r="5.91"/><rect class="cls-1" x="309.26" y="471.05" width="17.23" height="17.23"/><circle class="cls-2" cx="317.88" cy="479.66" r="8.61"/><rect class="cls-1" x="441.84" y="488.53" width="7.24" height="7.24"/><circle class="cls-2" cx="445.46" cy="492.15" r="3.62"/><rect class="cls-1" x="535.12" y="437.94" width="18.07" height="18.07"/><circle class="cls-2" cx="544.15" cy="446.97" r="9.03"/><rect class="cls-1" x="628.19" y="386.36" width="7.86" height="7.86"/><circle class="cls-2" cx="632.12" cy="390.29" r="3.93"/><rect class="cls-1" x="706.07" y="294.16" width="10.24" height="10.24"/><circle class="cls-2" cx="711.19" cy="299.28" r="5.12"/><rect class="cls-1" x="691.62" y="157.06" width="13.78" height="13.78"/><circle class="cls-2" cx="698.51" cy="163.95" r="6.89"/><rect class="cls-1" x="622.59" y="74.73" width="6.86" height="6.86"/><circle class="cls-2" cx="626.02" cy="78.16" r="3.43"/><rect class="cls-1" x="510.41" y="30.97" width="11.79" height="11.79"/><circle class="cls-2" cx="516.3" cy="36.87" r="5.89"/><rect class="cls-1" x="409.36" y="1.91" width="6.85" height="6.85"/><circle class="cls-2" cx="412.79" cy="5.34" r="3.42"/><rect class="cls-1" x="311.52" width="14.62" height="14.62"/><circle class="cls-2" cx="318.83" cy="7.31" r="7.31"/><rect class="cls-1" x="202.75" y="26.82" width="15.46" height="15.46"/><circle class="cls-2" cx="210.48" cy="34.55" r="7.73"/><rect class="cls-1" x="119.87" y="74.19" width="12.91" height="12.91"/><circle class="cls-2" cx="126.32" cy="80.65" r="6.46"/><rect class="cls-1" x="39.77" y="178.07" width="9.58" height="9.58"/><circle class="cls-2" cx="44.56" cy="182.86" r="4.79"/><rect class="cls-1" y="284.77" width="12.66" height="12.66"/><circle class="cls-2" cx="6.33" cy="291.1" r="6.33"/><rect class="cls-1" x="37.26" y="396.01" width="15.04" height="15.04"/><circle class="cls-2" cx="44.78" cy="403.54" r="7.52"/><rect class="cls-1" x="95.11" y="481.16" width="11.31" height="11.31"/><circle class="cls-2" cx="100.77" cy="486.82" r="5.66"/><rect class="cls-1" x="181.67" y="550.69" width="15.35" height="15.35"/><circle class="cls-2" cx="189.34" cy="558.36" r="7.67"/><rect class="cls-1" x="291.71" y="600.15" width="5.83" height="5.83"/><circle class="cls-2" cx="294.63" cy="603.06" r="2.92"/><rect class="cls-1" x="402.3" y="614.19" width="5.91" height="5.91"/><circle class="cls-2" cx="405.25" cy="617.14" r="2.95"/><rect class="cls-1" x="520.6" y="574.51" width="7.78" height="7.78"/><circle class="cls-2" cx="524.49" cy="578.4" r="3.89"/><rect class="cls-1" x="519.6" y="522.7" width="7.34" height="7.34"/><circle class="cls-2" cx="523.27" cy="526.37" r="3.67"/></svg>