<svg id="Layer_1" data-name="Layer 1" xmlns="http://www.w3.org/2000/svg" viewBox="0 0 568.83 739.84"><defs><style>.cls-1{fill:#201315;}</style></defs><title>tree-branch</title><path class="cls-1" d="M-988.7,2353.25c7.13-3.1,13.82,5,21.13.86,0.72-.41,2.65,1.27,4,2l32.5,18.48c6.12,2.58,8.42,7.57,8.23,14.13,2.86-1.5,1.14-4.45,3.13-6.14,2.36,2.59.76,5.83,1.65,10.47l1.89-7.14c2.41,1.43.55,4.11,2.63,5.7l1.25-4.64c4.33,1.54,3.56,6,5.37,9.59l1.33-4.57c3.16,1.28,1.18,4.52,3,6.34,2.13-.95.38-3.8,3-5.43l3.46,4.39,27.16,17.87c-1-7.47-2.1-14-2.59-20.55a8.49,8.49,0,0,0-4.55-7.36c-13-8.11-21.76-19.89-28.06-33.63-0.7-1.53-3-3.51-.14-5.07,3.51-1.91,3.41,1.73,4.25,3.31,3.89,7.32,7.71,14.64,14.73,21.46a135.53,135.53,0,0,0-.06-23.68c-0.16-2-2.15-5,1.24-5.49,3.79-.56,3,3.28,3,5.24,0.34,7.51.86,15.11,0.12,22.56-0.65,6.55,2.52,9,8.31,11.2a224.45,224.45,0,0,1,1-30.4,176.18,176.18,0,0,1,6.41-31.17c1.14-3.8,3.55-3.42,6.15-3,3.35,0.57,1.18,2.8.76,4-10.9,32-9.37,64,.11,96a14.86,14.86,0,0,0,5.81,8.51c42.08,29.7,81,63.24,118.45,98.46,3,2.8,6.12,5.43,9.62,8.53a38.13,38.13,0,0,0,1.36-4.07c4.49-23.86,14.11-45.65,27.42-65.76a25.84,25.84,0,0,0,4.47-18.47c-2.14-19.19,2.08-37,13.78-52.67,2.45-3.28,3.56-7.1,4.74-10.9,0.7-2.26.4-3.84-2.64-3.78-7.55.15-12.07-4.6-16.09-10.17-1.53-2.12-2.27-4.86-4.83-6.2-2-1-4.12-2.16-2.85-5a3.65,3.65,0,0,1,3.72-2.32c2.8,0.33,2.93,2.52,3.3,4.88,1.11,7.1,5.61,12,11.72,15.15,6.29,3.22,10.15.53,9.22-6.19-0.8-5.84-1-12.18-7.63-15.19-1.72-.78-2-2.25-1.59-3.9a3.52,3.52,0,0,1,3.44-2.66c2.09-.1,3,1.22,3.52,3.2,1.28,4.66,3.11,9.19,4.18,13.89s3.1,3.73,5.24,1.27c3.57-4.1,6.39-8.59,4.11-14.45a2.93,2.93,0,0,1,1.43-3.94,3.69,3.69,0,0,1,3.79.06c1.23,0.7,2.46,2.23,1.68,3.2-4.22,5.23-3.45,13.9-9.41,17.1-7.84,4.2-5.94,11.2-8.16,17.71a56.28,56.28,0,0,0,26.07-36c1.46-6.17,3.37-12.54-.63-18.63-1-1.55-.5-3,0.85-4.1a3.36,3.36,0,0,1,4.29-.31c1.64,1.1,2.18,2.41,1.32,4.51-2.68,6.58-1.39,13.69-3.64,21.78A92.58,92.58,0,0,0-621.92,2337c1-1,2.72-2.25.88-3.8-9.66-8.14-4.94-19.46-6.56-29.36-0.28-1.71.93-2.91,2.59-3.4a3.42,3.42,0,0,1,3.55,1.26c1.2,1.26,1.65,2.91.26,4.13-5,4.38-3.74,10-3.25,15.43,0.4,4.42,2.19,9,6.44,10,3.3,0.71,4.34-4.32,6.46-6.72,3.76-4.24,4.54-8.09.33-13.1-3.52-4.19-4.44-10-5.3-15.54-2.08-13.52-1.39-27,.82-40.37,1.37-8.27,2.22-15.51-6.38-20.24l1.26-1.66c2.58,1.47,5,6,7.34,4.26s2.6-6.35,1.21-9.94a6.48,6.48,0,0,0-.21-0.63c-1-2-1-3.81,1.18-5.11a3.38,3.38,0,0,1,4.26.58c2,1.71,1,3.21,0,5.19a35.22,35.22,0,0,0-3.75,15.92c8-3.63,14.4-14.13,13.83-22-0.12-1.67-.71-2.38-2.29-2.53-11.31-1.06-16.2-9.72-21.32-18.08-1.49-2.43-2.31-5.33-4.94-6.94-1.78-1.09-3.54-2.26-2.52-4.69,0.73-1.75,2.19-2.9,4.21-2.43,2.52,0.58,2.19,2.66,2.56,4.69,1.26,7,5.31,12.45,10.55,17.14-1.25-11.13-3.08-21.94-11.94-29.88-1.48-1.33-2.52-2.69-1.17-4.51,0.9-1.21,2.12-2.38,3.92-1.94,2.08,0.51,2.63,2,2.59,4a9.92,9.92,0,0,0,.85,4.45c4.73,9.56,9.15,19,8.62,30.26-0.19,4,4.55,4.76,8.11,5.1,1.84,0.17,3-.8,2.56-2.85-2.23-11.56-2.39-23.89-11.87-32.81-1.24-1.17-2-2.37-1.16-4.08a3.7,3.7,0,0,1,3.69-2.34,3.08,3.08,0,0,1,3.13,2.9c0.38,8.38,5.29,15.41,6.85,23.44,0.55,2.85,0,7.68,3,7.83,3.35,0.17,5.49-4,6.85-7.35s3.08-6.94.29-10.65c-1.35-1.78-.38-3.38,1.33-4.44a3.4,3.4,0,0,1,4.29.4c1.57,1.37,1.83,3,.48,4.66-1.87,2.36-2.06,5.31-2.88,8.05-1.29,4.3-3,8.63-7.17,10.8-3.65,1.92-4,4.6-4,8.15-0.05,10.37-2.4,20.39-11.57,26.22-5.78,3.67-7.19,8.27-7.74,14.08-0.25,2.65-.7,5.28-0.87,7.93a160.94,160.94,0,0,0,.26,28.31c6.47-6.21,7.92-12.55,4.94-19.65-0.65-1.55-1.16-2.91,0-4.27a3.58,3.58,0,0,1,4.22-1.06c1.33,0.51,2.66,1.69,2.15,3-2.79,7-1,15.62-6.45,21.28-5.67,5.91-2.59,10.71.1,16,0.57,1.1,1.69,2.58,2.67,2.67,2,0.19,2-2.06,2.41-3.37,5.17-15.19,5.66-30.83,4.15-46.62a8.48,8.48,0,0,0-1.4-3.67c-1.23-1.87-1.87-3.61.14-5.25a3.61,3.61,0,0,1,4.35-.28c2.15,1.31,1.53,3,1,5.14-2.29,9.42.11,18.88-1,29.81a40.8,40.8,0,0,0,12.94-17.21c1.87-4.63,3.68-9-3.1-11.6-1.73-.66-3.14-3.19-3.88-5.17-1.39-3.7-2-7.71-3.32-11.43-0.72-2-1.85-3.66.14-5.33a3.63,3.63,0,0,1,4.89-.09c2,1.59,1.24,3.32.23,5.29-2.57,5-.55,9.44,2.39,13.53,1,1.44,2.55,2.81,4.48,2.15s1.39-2.63,1.33-4.07c-0.4-9.9-.09-20-6.13-28.66-1-1.46-1.23-2.83-.11-4.24a3.57,3.57,0,0,1,4.18-1.23c1.93,0.68,2.65,2.13,2.12,4.22-0.38,1.48-1,3.14-.67,4.5,3.12,12.7,4.6,25.47,1.33,39.18,9.3-2.81,13.6-9,17.11-16.11a2.6,2.6,0,0,0-.58-3.52c-10.28-9.5-9.13-21.87-8.47-34.08,0.17-3.06,1.24-6.09-.42-9.1-1-1.86-.37-3.45,1.46-4.47a3.49,3.49,0,0,1,4.28.66c1.58,1.43,1.26,2.9.33,4.73-5.86,11.49-4.18,23.11,0,34.57,0.8,2.17,2.08,4.92,5.72,5.15,1.06-6.85,5.68-13.31.85-20.4-1.1-1.61-.17-3.08,1.11-4a3.6,3.6,0,0,1,4.38,0,2.91,2.91,0,0,1,1,4.07c-2,3.41-1.58,7.31-2.35,11-2,9.39-3.41,20.11-11.16,25.69-10.46,7.52-18.19,17.07-26.59,26.33-2.66,2.93-4.61,5.53-5.29,9.41a74.46,74.46,0,0,1-21.61,41c-1.25,1.23-3.49,2-3.15,4.6,6.32,0.2,10.88-3.43,15.65-6.58l1.12,1.75a26.09,26.09,0,0,1-19.11,7.84,9.52,9.52,0,0,0-4.5.78c-10.43,5.18-17.48,13.5-21.12,25.47,23.38-7,44-18,59.91-36.65,1.3-1.52,3.43-2.82,1.55-5.63-5-7.4-4.1-15.52-2.69-23.76,0.7-4.09,3.33-7.92,2.12-12.24-0.69-2.45-.07-3.91,2.23-4.62a3.63,3.63,0,0,1,4.1,1.47c1.71,2.21.07,3.43-1.28,5-5.29,6.25-5.05,13.75-4.62,21.29,3.11-4.13,5.84-8.3,4.93-13.77a3,3,0,0,1,2.31-3.55c1.75-.61,3,0.34,4,1.58,1.15,1.4,1.24,3.07-.25,4.11-5.64,3.93-5.3,11.52-10.11,16.06-2.06,1.94-.55,5.17,1.48,6.32,2.43,1.38,3.13-1.75,4.06-3.22a79.77,79.77,0,0,0,9.82-22.43c2.35-8.85,5.5-17.7.79-26.79-0.73-1.42,0-2.62,1.12-3.47a3.65,3.65,0,0,1,4.35-.28,2.86,2.86,0,0,1,1.56,3.33c-0.42,1.48-1.43,2.88-1.53,4.35-0.2,2.93-2.26,6.91.42,8.53,2.22,1.34,5.12-1.81,7.3-3.59,11.33-9.21,15.92-30,9.61-43.82-0.82-1.8-1.48-3.22.13-4.73a3.51,3.51,0,0,1,4.83-.41c1.68,1.24,1.84,3,.75,4.7-1.4,2.24-1,4.59-.82,7.06,1.78,19-2.16,35.39-21.34,44.37-1.72.8-3.6,2.34-3.51,3.71,0.51,7.52-3.85,13.77-5.57,22.35,7.81-5.73,15.26-9.64,17.69-18.63,0.43-1.58.88-3.83,3.23-3.47a5.31,5.31,0,0,1,3,2.29c1,1.5.38,3-1.08,4-8.27,5.69-13.25,15.71-24,18.18-1,.23-1.89,1.8-2.52,2.92-14.46,25.55-37.23,40.56-64.27,49.48a63.3,63.3,0,0,0-23.8,13.62c-18.78,17.29-24.28,38.85-20.61,63.4a2.9,2.9,0,0,0,1.17.65,24.73,24.73,0,0,0,1.75-1.85c27.08-34.82,62-59,102.42-75.84,9.61-4,19.31-7.73,28.46-12.76a15.13,15.13,0,0,0,7-7.56q44.45-101.48-8.77-198.61c-0.81-1.47-4.24-3.2-.66-5.29,3-1.75,4.33.46,5.68,2.65a234.38,234.38,0,0,1,13.26,24.52c6.14,13.24,10.49,27.1,14.31,42.09,9.44-8.56,14.26-18.82,18.41-29.56,1.16-3,.78-5.2-1-7.91Q-523,2155-539.65,2128.93c-1.12-1.74-4.53-3.76-1.38-6,3.41-2.47,3.82,1.76,4.92,3.33,4.57,6.52,8.82,13.26,13.19,19.92,2.28-13.36,3.15-26.16,4.19-38.94,0.14-1.69-.64-4.63,2.37-4.55,3.64,0.1,2.27,3.17,2.14,5.09-1,13.7-2.1,27.39-3.12,41.08-0.15,2-.78,4.4.09,5.85,4.56,7.6,9.53,15,14.77,23a25.24,25.24,0,0,0,1.33-3c4-16.47,3.44-33.15,2.32-49.87-0.13-2-2.15-5.29,2.16-5.56,3-.19,5.6.12,5.84,4.36,2.18,37.68-3.53,73.38-26.24,104.75a15.13,15.13,0,0,0-3.14,11.52,217.73,217.73,0,0,1-.9,55,239.4,239.4,0,0,1-14,53c13.59-9.73,23.83-20.72,34.39-31.4,6.09-6.16,9-11.93,3.5-19.85-1.21-1.74-1.53-4.13-2.1-6.27-5.52-20.7-5.1-41.68-2.39-62.67,0.37-2.9-1.38-8.83,3.53-8.18,3.59,0.47,1.06,5.67.76,8.69-1.22,12.23-2.61,24.44-1.06,37.82,11.3-9.06,17.56-20.42,23.64-32a11.93,11.93,0,0,0,1-9.47c-3.63-13-6.93-26.1-10.29-39.18-0.45-1.76-2-4.17,1-5s2.74,2.27,3.34,3.89c1.23,3.31,1,7.19,4.1,10.8,3.3-7.4,6.19-14.06,9.26-20.64,0.72-1.54.9-4.44,4-2.81,2.6,1.37.72,3.08,0.13,4.48-2.76,6.52-5,13.41-8.66,19.38-5.56,9-1.38,16.7,1.7,24.94,3.49-8,6.2-16.12,9.19-24.16,0.69-1.87-.07-5.9,3.86-4.62,3.42,1.11.88,3.84,0.38,5.59a219,219,0,0,1-11.9,32.38c-7,15.12-14.66,29.89-28.23,40.46a4,4,0,0,0-1.9,3.92c1.23,9.63,3.31,19,8.23,28.41,20.14-26.52,34.81-55,46.07-85.94,4.81,9.55,4.84,9.56,1.52,17.91a334.38,334.38,0,0,1-51.37,88c-0.83,1-2.76,1.74-1.76,3.68,10.14,0.65,18.28-1.78,23.87-11.46,4.51-7.81,10.65-14.69,16.25-21.83,1.24-1.58,2.13-5.47,5.31-2.83,2.69,2.25-.52,3.89-1.63,5.4-6.75,9.22-13.66,18.33-21.26,28.46,5.93-.59,10.5-1.16,15.08-1.44,1.71-.1,4.47-1.53,4.77,1.67s-2.61,2.32-4.36,2.53c-12.51,1.45-25,2.88-37.55,4.13a16.2,16.2,0,0,0-11,5.23c-16.55,17.58-35.85,31.41-57.33,42.53-35.87,18.59-68.56,41.56-94.82,72.75-25.38,30.13-41.3,64.26-43.61,104.11a13.26,13.26,0,0,0,3.18,9.67c12.93,16.33,25,33.3,36.45,50.7A834,834,0,0,1-591,2747.23c1.92,4.51,3.27,5.09,7,1.55a131.6,131.6,0,0,0,25.89-34.32c1.44-2.71,1.24-4.77-.39-7.29-3.12-4.81-5.89-9.84-8.81-14.78l0.35-.31c2.67-.68,3.94.83,5.15,2.93,2.05,3.57,4.38,7,7.13,11.3,5.7-11.58,8.79-22.81,11-34.24,1.66-8.45,2.56-17,3.89-25.56,0.21-1.34-.25-3.63,2.13-3.33s1.45,2.4,1.33,3.77c-0.36,4.41-.76,8.82-1.41,13.19-5.38,36.41-17.91,69.33-46.69,94.11-2.46,2.12-2.08,3.8-1,6.25a439,439,0,0,1,26.27,82h-41.22c-3.7-6.33-9.74-10.5-14.89-15.37-18.37-17.35-39.69-30.28-62.85-40.32-20.88-9.05-43.11-13.23-65-18.66-4.94-1.22-9.65-2.45-14.92-1.25-27,6.16-51.62,17.07-73.29,34.43a158.91,158.91,0,0,0-29.44,30.52c-3.44,4.72-5.72.66-8.25-.48-3.64-1.64-.83-3.69.27-5.16a178.77,178.77,0,0,1,24.08-26.52c2.37-2.11,4.7-4.26,7.55-6.85a21.75,21.75,0,0,0-2.93-.77c-27.83-1.7-54.67-8.11-81-17-3-1-6.14-1.45-4.39-6.13,1.87-5,4.71-1.67,6.89-1q22.48,7.14,45.52,12.13c5.67,1.23,6.18-.62,4.42-5.23-2.21-5.78-4.27-11.62-6.33-17.46-1.34-3.82-3.75-5.38-8-5.31-8.85.16-17.72-.2-26.58-0.4-1.72,0-3.83.17-3.72-2.54s2.2-2.29,3.91-2.23c8.19,0.28,16.38.57,24.56,0.94,3.74,0.17,4.29-1.12,2.3-4.16a131.13,131.13,0,0,0-18.92-23.07c-1.32-1.27-4.87-2.17-2.45-5,2.72-3.18,4.3.48,5.72,1.8,16.75,15.67,28.29,34.63,33.87,56.83,1.58,6.28,4.27,8.83,10.37,9.22,12.71,0.82,25.72,5.74,37.16-4.87,3.63-3.37,8.7-5.21,13.2-7.6,8.95-4.75,18.61-7.84,28.46-11.52a9.27,9.27,0,0,0-2-1.57c-45.82-15.11-89-36-130.88-59.74a13.65,13.65,0,0,0-9.51-1.51,561.85,561.85,0,0,1-74.7,6.73c-3.4.09-5.79-.35-5.87-4.23-0.1-4.84,3.8-2.79,5.84-2.84,9.42-.22,18.75-1.07,28.28-2.19-8.58-12-18.05-20.66-33.75-15.52a12.42,12.42,0,0,1-5.28.31c-2-.26-5.5,2.37-5.7-1.85-0.17-3.49,3.25-2.09,5.12-2.33,6-.75,11.93-1.23,19.23-1.94-4.74-4.59-8.48-8-12-11.69-1.3-1.36-4.58-2.54-2.13-5.18s3.87,0.49,5.21,1.8q16.56,16.33,32.93,32.86c1.23,1.24,2,3.06,4.13,2.81,9.89-1.17,19.8-2.31,30.59-5.11-3.13-2-5.13-3.36-7.18-4.61-21.17-12.94-41.88-26.58-61.9-41.25-2.79-2-5.12-3.81-2.31-7.32,2.95-3.69,4.75.36,6.43,1.44,16.73,10.83,33.62,21.39,50.9,31.33,49.44,28.43,100.44,53.36,155.07,70.43,29.08,9.08,59.45,11.8,88.87,19.08,30.89,7.65,60.82,17.66,87,36.49,1.5,1.08,2.57,3.09,4.9,2.79a3.54,3.54,0,0,0,.26-1.33c-11.87-47.4-31.41-91.59-56-133.69-1.51-2.59-3.44-2.93-6.07-2.79-15,.83-30.12,1.11-45.1,2.55-4.59.44-10-1.86-14,2.51l-1.19-1.29c-1.89-2.23-4.55-1.41-6.83-1.5a277.39,277.39,0,0,1-91.69-19.12c5.82-1.3,11.64,1.05,17.46,0a25,25,0,0,0,3.55,1.73A281.31,281.31,0,0,0-719,2656.17c0.88,0,1.76-.07,1.71-1.56-3.21-1.12-6.55-2.17-9.81-3.42-31-11.95-53-32.18-60-65.92a18.74,18.74,0,0,0-5.4-10.08c-3.51-3.45-4.92-8.3-6.55-12.88-0.83-2.32.92-1.84,2.13-2,3,2,4.8,2.14,5.29-2.42,0.4-3.73.62-7.85,3.86-10.7,1,3.23-.86,6-1.7,8.83-1.64,5.5-1,9.86,4.74,13.39a82.59,82.59,0,0,1,12.05-39.62l2.37,0.71c-8.37,11.87-11.72,25.22-12.26,39.79,4.14-1,3.53-4.08,3.94-6.54,1.87-11.11,4.68-21.91,10.58-31.68l1.29,1.5c-1.81,1.55-1.46,3.58-1,5.46,2.37,9.42,3.26,18.88,1.18,28.48-0.34,1.55-.39,3.06,1.28,4,1.46,4.22,4.55,8.14,2.28,13.71-1.88-2-3.37-3.89-5.11-5.48-1.92-1.75-4.08-2.47-6.62-.86-5.05,3.2-8.2,12.38-6,18.15,5.49,14.72,14.78,26.6,27.11,36.19,7.74,6,16.5,10.19,25.32,14.4,8.29,4,17.34,5.39,26,7,12.14,2.25,24.78,0,37.26-1.44a10,10,0,0,0-.5-2c-1.37-2.28-2.77-4.53-4.17-6.78-55.92-89.92-129.4-162.88-215.58-223.66-31.5-22.22-64.35-42.23-97.72-61.45-2.55-1.47-5-2.81-5.45-6.09Zm212.23,209.69c-0.35,2-1.79,4.62,2.25,4.38,2.5-.14,6.07,1.9,6.19-3.09,0.19-7.69.95-15.41-1.81-23.91A88.75,88.75,0,0,0-776.46,2562.94Z" transform="translate(1008.59 -2102.65)"/></svg>